<svg xmlns="http://www.w3.org/2000/svg" xmlns:xlink="http://www.w3.org/1999/xlink" version="1.1" id="Слой_1" x="0px" y="0px" viewBox="0 0 747 399.7" style="enable-background:new 0 0 747 399.7;" xml:space="preserve">
<style type="text/css">
	.st0{opacity:0.4;fill:#0086DC;enable-background:new    ;}
	.st1{fill:#70BEF2;}
	.st2{fill:#002050;}
	.st3{fill:#B3EBFF;}
	.st4{fill:#349CD6;}
	.st5{fill:#FFFFFF;}
	.st6{fill:#E87323;}
	.st7{fill:#F9A139;}
	.st8{fill:#099393;}
	.st9{fill:#37C6D0;}
	.st10{fill:#54E6EA;}
	.st11{opacity:0.1;enable-background:new    ;}
	.st12{opacity:0.2;enable-background:new    ;}
	.st13{fill:#1E2336;}
	.st14{fill:url(#SVGID_1_);}
	.st15{fill:url(#SVGID_2_);}
	.st16{fill:url(#SVGID_3_);}
	.st17{fill:url(#SVGID_4_);}
	.st18{fill:url(#SVGID_5_);}
	.st19{fill:url(#SVGID_6_);}
	.st20{fill:#565689;}
	.st21{fill:#7F7FC6;}
	.st22{fill:#FCB15D;}
	.st23{fill:#E5A1AC;}
	.st24{fill:#603813;}
	.st25{fill:#B9D7FC;}
	.st26{fill:#662D91;}
	.st27{fill:#FCEE21;}
	.st28{fill:#FFF9BD;}
	.st29{fill:#074868;}
	.st30{fill:#696235;}
	.st31{fill:#5C552E;}
	.st32{fill:#2E3A53;}
	.st33{fill:#4F4F4F;}
	.st34{fill:#F5D1B7;}
	.st35{fill:#E4A97C;}
	.st36{fill:#D89060;}
	.st37{fill:#137DA2;}
	.st38{fill:#145B76;}
	.st39{fill:#F9ED32;}
	.st40{opacity:0.68;fill:#FFFFFF;enable-background:new    ;}
	.st41{fill:#093242;}
	.st42{fill:#EF4136;}
	.st43{fill:#E6E6E6;}
	.st44{fill:#41446E;}
	.st45{fill:#BAE55C;}
	.st46{fill:#8ED5E6;}
	.st47{fill:#CCCCCC;}
	.st48{fill:#D3C22A;}
	.st49{fill:#474747;}
	.st50{fill:#FFA895;}
	.st51{fill:#233D4D;}
	.st52{fill:#F76D6D;}
	.st53{fill:#F7CA7C;}
	.st54{fill:#182E5A;stroke:#000000;stroke-width:0.5;stroke-miterlimit:10;}
	.st55{fill:#054899;}
	.st56{fill:#FF910D;}
</style>
<path class="st0" d="M244.8,353.9C57,293.9-29,74.7,157.5,33.1C282.8,5,399.1,56.3,432.9,82.4C521,150.5,871.2,259.8,602,358.1  C533.1,383.1,406.5,405.6,244.8,353.9z"/>
<rect x="267.8" y="267.3" class="st1" width="57.1" height="69.9"/>
<path class="st1" d="M366,359.7H226.8l0,0c0-15.8,12.8-28.5,28.5-28.5h82.2C353.4,331.1,366,343.9,366,359.7L366,359.7z"/>
<path class="st2" d="M467.4,60.2v204.5H125.5V60.2c0-14.5,11.8-26.3,26.3-26.3H441C455.5,33.9,467.4,45.7,467.4,60.2z"/>
<path class="st1" d="M467.4,264.7v2.2c0,14.5-11.8,26.4-26.3,26.4H152c-14.5,0-26.3-11.8-26.3-26.4v-2.2H467.4z"/>
<path class="st3" d="M446.6,249.9H146.3c-1.2,0-2.1-0.9-2.1-2.1V54.4c0-1.2,0.9-2.1,2.1-2.1h300.4c1.2,0,2.1,0.9,2.1,2.1v193.5  C448.7,249,447.9,249.9,446.6,249.9z"/>
<rect x="267.8" y="293.2" class="st4" width="57.1" height="10.8"/>
<rect x="267.8" y="325.7" class="st4" width="57.1" height="5.4"/>
<g>
	<g>
		<path class="st2" d="M394,83.2v89.5c0,1.1-0.1,2.2-0.4,3.2c-1.5,5.8-7.2,10.2-13.8,10.2h-61.9c-7.9,0-14.3-5.9-14.3-13.4V83.2    C303.5,83.2,394,83.2,394,83.2z"/>
		<g>
			<path class="st4" d="M394,81.4v1.8h-90.5v-1.8c0-7.4,6.3-13.4,14.3-13.4h61.9C387.7,68.1,394,74.1,394,81.4z"/>
			<g>
				<path class="st5" d="M364,72.5c-1.9,0-3.4,1.4-3.4,3.2s1.5,3.2,3.4,3.2s3.4-1.4,3.4-3.2C367.5,74,366,72.5,364,72.5z"/>
				<path class="st5" d="M373.2,72.5c-1.9,0-3.4,1.4-3.4,3.2s1.5,3.2,3.4,3.2s3.4-1.4,3.4-3.2C376.6,74,375.2,72.5,373.2,72.5z"/>
				<path class="st5" d="M382.7,72.5c-1.9,0-3.4,1.4-3.4,3.2s1.5,3.2,3.4,3.2s3.4-1.4,3.4-3.2C386,74,384.6,72.5,382.7,72.5z"/>
			</g>
		</g>
	</g>
	<g>
		<g>
			<path class="st1" d="M329.5,116.7h-17.4c-0.4,0-0.7-0.2-0.7-0.6V99.8c0-0.4,0.2-0.6,0.7-0.6h17.4c0.4,0,0.7,0.2,0.7,0.6v16.3     C330.1,116.5,330,116.7,329.5,116.7z M312.9,115.5H329v-15.1h-16.1V115.5z"/>
		</g>
		<g>
			<path class="st1" d="M329.9,143.4h-17.4c-0.4,0-0.7-0.2-0.7-0.6v-16.3c0-0.4,0.2-0.6,0.7-0.6h17.4c0.4,0,0.7,0.2,0.7,0.6v16.3     C330.5,143.1,330.1,143.4,329.9,143.4z M313,142.2h16.1v-15.1H313V142.2z"/>
		</g>
		<g>
			<path class="st1" d="M329.9,168.6h-17.4c-0.4,0-0.7-0.2-0.7-0.6v-16.3c0-0.4,0.2-0.6,0.7-0.6h17.4c0.4,0,0.7,0.2,0.7,0.6V168     C330.5,168.4,330.1,168.6,329.9,168.6z M313,167.4h16.1v-15.1H313V167.4z"/>
		</g>
		<g>
			<rect x="346" y="105" class="st1" width="41" height="1.4"/>
			<rect x="346" y="108" class="st1" width="32.7" height="1.4"/>
			<rect x="346" y="111.1" class="st1" width="18" height="1.4"/>
		</g>
		<g>
			<rect x="346" y="130.2" class="st1" width="41" height="1.4"/>
			<rect x="346" y="133.2" class="st1" width="32.7" height="1.4"/>
			<rect x="346" y="136.4" class="st1" width="18" height="1.4"/>
		</g>
		<g>
			<rect x="346" y="155.5" class="st1" width="41" height="1.4"/>
			<rect x="346" y="158.6" class="st1" width="32.7" height="1.4"/>
			<rect x="346" y="161.6" class="st1" width="18" height="1.4"/>
		</g>
		<g>
			<path class="st6" d="M328.1,165.2c-0.4,0-0.8-0.1-1.1-0.4l-8.9-8.2c-0.6-0.6-0.6-1.4,0-2.1s1.6-0.6,2.2,0l7.6,7l11-13.8     c0.5-0.6,1.4-0.7,2.2-0.2c0.7,0.5,0.8,1.4,0.4,2.1l-12.1,15.1C329.1,165,328.7,165.2,328.1,165.2     C328.2,165.2,328.1,165.2,328.1,165.2z"/>
		</g>
		<g>
			<path class="st6" d="M328.4,116.2c-0.4,0-0.8-0.1-1.1-0.4l-8.9-8.2c-0.6-0.6-0.6-1.4,0-2.1c0.6-0.6,1.6-0.6,2.2,0l7.6,7l11-13.8     c0.5-0.6,1.4-0.7,2.2-0.2c0.7,0.5,0.8,1.4,0.4,2.1l-12.1,15.1C329.4,116,329,116.1,328.4,116.2     C328.5,116.2,328.4,116.2,328.4,116.2z"/>
		</g>
		<g>
			<path class="st6" d="M328.1,139.5c-0.4,0-0.8-0.1-1.1-0.4l-8.9-8.2c-0.6-0.6-0.6-1.4,0-2.1s1.6-0.6,2.2,0l7.6,7l11-13.8     c0.5-0.6,1.4-0.7,2.2-0.2c0.7,0.5,0.8,1.4,0.4,2.1L329.4,139C329.1,139.3,328.7,139.5,328.1,139.5     C328.2,139.5,328.1,139.5,328.1,139.5z"/>
		</g>
	</g>
</g>
<path class="st7" d="M181.5,296.1H119c-4.5,0-8.2-3.7-8.2-8.2v-94.3c0-4.5,3.7-8.2,8.2-8.2h62.6c4.5,0,8.2,3.7,8.2,8.2v94.2  C189.8,292.3,186.1,296.1,181.5,296.1z"/>
<path class="st5" d="M182.1,289.2h-59.8c-3,0-5.4-2.4-5.4-5.4v-86.2c0-3,2.4-5.4,5.4-5.4h56c3,0,5.4,2.4,5.4,5.4v90  C183.8,288.5,183.1,289.2,182.1,289.2z"/>
<polygon class="st2" points="171.5,302.2 166,297.4 160.5,302.2 160.5,274.1 171.5,274.1 "/>
<path class="st7" d="M168.3,257.4L168.3,257.4c1.4-2.1,4.9-1.1,4.8,1.5l0,0c-0.1,1.8,1.8,3.1,3.5,2.5l0,0c2.4-0.8,4.6,2,3,4l0,0  c-1.1,1.4-0.5,3.6,1.4,4.1l0,0c2.5,0.8,2.5,4.3,0,5l0,0c-1.8,0.5-2.4,2.7-1.4,4.1l0,0c1.6,2.1-0.5,4.9-3,4l0,0  c-1.8-0.6-3.6,0.7-3.5,2.5l0,0c0.1,2.6-3.3,3.7-4.8,1.5l0,0c-1.1-1.5-3.3-1.5-4.3,0l0,0c-1.4,2.1-4.9,1.1-4.8-1.5l0,0  c0.1-1.8-1.8-3.1-3.5-2.5l0,0c-2.4,0.8-4.6-2-3-4l0,0c1.1-1.4,0.5-3.6-1.4-4.1l0,0c-2.5-0.8-2.5-4.3,0-5l0,0  c1.8-0.5,2.4-2.7,1.4-4.1l0,0c-1.6-2.1,0.5-4.9,3-4l0,0c1.8,0.6,3.6-0.7,3.5-2.5l0,0c-0.1-2.6,3.3-3.7,4.8-1.5l0,0  C165,258.9,167.1,258.9,168.3,257.4z"/>
<circle class="st2" cx="166" cy="272.2" r="10.4"/>
<path class="st2" d="M173.8,202.1h-46.9c-1.5,0-2.8-1-2.8-2.2l0,0c0-1.2,1.3-2.2,2.8-2.2h46.9c1.5,0,2.8,1,2.8,2.2l0,0  C176.6,201.1,175.3,202.1,173.8,202.1z"/>
<path class="st2" d="M154.6,214.2h-26.3c-1.5,0-2.8-1-2.8-2.2l0,0c0-1.2,1.3-2.2,2.8-2.2h26.3c1.5,0,2.8,1,2.8,2.2l0,0  C157.5,213.2,156.1,214.2,154.6,214.2z"/>
<g>
	<path class="st5" d="M470.5,93.7h-59.7c-4.6,0-8.4-3.8-8.4-8.4v-52c0-4.6,3.8-8.4,8.4-8.4h59.7c4.6,0,8.4,3.8,8.4,8.4v52   C479,89.9,475.1,93.7,470.5,93.7z"/>
	<g>
		<circle class="st8" cx="438.7" cy="45.9" r="18.3"/>
		<circle class="st9" cx="455.7" cy="62" r="15.6"/>
		<circle class="st10" cx="440.6" cy="76.7" r="12.4"/>
		<path class="st11" d="M442,41.1h-20.7c-2.6,9.7,3.1,19.7,12.9,22.3c1.5,0.5,3.2,0.6,4.8,0.6c0.6,0,1.1,0,1.7-0.1V64    c-6.7,0.1-12.2,5.7-12.1,12.4v0.9h13.7c1.4,0,2.6-1.2,2.6-2.6l0,0v-31C444.5,42.3,443.4,41.2,442,41.1z"/>
		<path class="st12" d="M440,43h-19.3c-1.7,9.9,5.1,19.3,15,20.8h0.1c0.9,0.1,1.9,0.2,2.8,0.2c0.6,0,1.1,0,1.7-0.1V64    c-6.9,0.1-12.3,5.9-12.2,12.8v0.1c0,0.8,0.1,1.7,0.4,2.5H440c1.4,0,2.6-1.2,2.6-2.6l0,0V45.5c0.1-1.4-1.1-2.6-2.4-2.6    C440,43,440,43,440,43z"/>
		<path class="st12" d="M440,43h-19.3c-1.7,9.9,5.1,19.3,15,20.8h0.1c0.9,0.1,1.9,0.2,2.8,0.2c0.6,0,1.1,0,1.7-0.1V64    c-6.4,0.2-11.6,5.1-12.1,11.5H440c1.4,0,2.6-1.2,2.6-2.6l0,0V45.5C442.5,44.2,441.4,43,440,43C440,43,440,43,440,43z"/>
		<path class="st12" d="M438,43h-17.4c-1.7,9.9,5.1,19.3,15,20.8h0.1c0.9,0.1,1.9,0.2,2.8,0.2c0.6,0,1.1,0,1.7-0.1V64    c-6.4,0.2-11.6,5.1-12.1,11.5h9.9c1.4,0,2.6-1.2,2.6-2.6l0,0V45.5C440.6,44.1,439.5,43,438,43L438,43z"/>
		<path id="Back_Plate_3_" class="st8" d="M412.5,43h25.7c1.4,0,2.6,1.2,2.6,2.6l0,0v25.7c0,1.4-1.2,2.6-2.6,2.6l0,0h-25.7    c-1.4,0-2.6-1.2-2.6-2.6l0,0V45.7C410,44.2,411.1,43,412.5,43L412.5,43z"/>
		<path class="st5" d="M421,58.1c-0.7-0.5-1.2-0.9-1.7-1.7c-0.4-0.7-0.6-1.4-0.6-2.2c0-1.1,0.4-2.1,1.1-3c0.7-0.8,1.8-1.4,2.8-1.8    c1.2-0.4,2.5-0.6,3.8-0.6c1.7-0.1,3.3,0.1,5,0.6V53c-0.7-0.5-1.4-0.7-2.1-0.9c-0.8-0.2-1.7-0.4-2.6-0.4s-1.9,0.2-2.7,0.6    c-0.6,0.2-1.1,0.9-1.1,1.7c0,0.5,0.1,0.8,0.5,1.1c0.4,0.4,0.8,0.7,1.2,0.9c0.7,0.4,1.5,0.7,2.2,0.9c0.1,0,0.2,0.1,0.4,0.1    c0.9,0.5,2,0.9,2.8,1.4c0.7,0.4,1.3,0.9,1.7,1.7c0.5,0.8,0.6,1.7,0.6,2.6c0.1,1.1-0.2,2.1-0.9,3.1c-0.7,0.8-1.5,1.4-2.6,1.7    c-1.2,0.4-2.4,0.6-3.7,0.6c-1.1,0-2.2-0.1-3.3-0.2c-0.9-0.1-1.8-0.5-2.7-0.8v-3.7c0.8,0.6,1.8,1.1,2.8,1.3c0.9,0.4,2,0.5,3,0.5    c0.9,0.1,1.9-0.1,2.8-0.6c0.6-0.4,0.9-0.9,0.9-1.7c0-0.5-0.1-0.9-0.5-1.2c-0.4-0.4-0.8-0.7-1.4-0.9c-0.8-0.5-1.8-0.8-2.7-1.2    C422.9,59.2,421.7,58.7,421,58.1z"/>
	</g>
</g>
<g>
	<path class="st1" d="M245,181.4v60.9h-31.7c-3.6,0-6.6-3-6.6-6.6v-54.3L245,181.4L245,181.4z"/>
	<path class="st1" d="M279.5,181.4v54.3c0,3.6-3,6.6-6.6,6.6h-28v-60.9H279.5z"/>
	<path class="st4" d="M279.5,181.4L279.5,181.4l-72.9,0.1v-0.1c0-3.6,3-6.6,6.6-6.6h59.7C276.6,174.8,279.5,177.6,279.5,181.4z"/>
	<g>
		<path class="st5" d="M266.6,176.6c-0.8,0-1.4,0.6-1.4,1.4s0.6,1.4,1.4,1.4c0.8,0,1.4-0.6,1.4-1.4    C268,177.4,267.3,176.6,266.6,176.6z"/>
		<path class="st5" d="M270.5,176.6c-0.8,0-1.4,0.6-1.4,1.4s0.6,1.4,1.4,1.4c0.8,0,1.4-0.6,1.4-1.4    C271.8,177.4,271.3,176.6,270.5,176.6z"/>
		<path class="st5" d="M274.3,176.6c-0.8,0-1.4,0.6-1.4,1.4s0.6,1.4,1.4,1.4c0.8,0,1.4-0.6,1.4-1.4    C275.6,177.4,275,176.6,274.3,176.6z"/>
	</g>
	<g>
		<g>
			<path class="st2" d="M248.8,193.5c-2-0.6-4-1-6.2-1c-6.1,0-11.7,2.6-15.4,6.6l15.4,12.9L248.8,193.5z"/>
			<path class="st7" d="M266,207.9c-0.7-8.4-6.5-15.3-14.3-17.8l-6.2,19.6L266,207.9z"/>
			<path class="st8" d="M242.5,212.1l0.9,20.5c10.9-0.5,19.7-9.5,19.7-20.5c0-0.6,0-1.2-0.1-1.8L242.5,212.1z"/>
			<path class="st5" d="M229.8,228.3c3.5,2.8,7.9,4.5,12.8,4.5c0.3,0,0.6,0,0.9,0l-0.9-20.5L229.8,228.3z"/>
			<path class="st4" d="M227.1,198.6c-3.2,3.6-5.1,8.4-5.1,13.6c0,6.5,3,12.3,7.7,16l12.8-16L227.1,198.6z"/>
		</g>
		<g>
			<path class="st13" d="M265.3,232h-5.6l-6-6c-0.1-0.1-0.1-0.2,0-0.3s0.2-0.1,0.3,0l5.9,5.9h5.4c0.1,0,0.2,0.1,0.2,0.2     C265.5,231.9,265.5,232,265.3,232z"/>
		</g>
		<g>
			<path class="st13" d="M250.1,236.8h-5.3l-7-7c-0.1-0.1-0.1-0.2,0-0.3s0.2-0.1,0.3,0l6.9,6.9h5.1c0.1,0,0.2,0.1,0.2,0.2     C250.5,236.6,250.3,236.8,250.1,236.8z"/>
		</g>
		<g>
			<path class="st13" d="M224.3,230.6H219c-0.1,0-0.2-0.1-0.2-0.2s0.1-0.2,0.2-0.2h5l6.1-6.1c0.1-0.1,0.2-0.1,0.3,0s0.1,0.2,0,0.3     L224.3,230.6z"/>
		</g>
		<g>
			<path class="st13" d="M253.3,194.6L253.3,194.6c-0.2-0.1-0.2-0.2-0.1-0.3l5.2-5.2h5c0.1,0,0.2,0.1,0.2,0.2s-0.1,0.2-0.2,0.2h-4.9     l-5,5C253.3,194.6,253.3,194.6,253.3,194.6z"/>
		</g>
		<g>
			<path class="st13" d="M227.8,204.1L227.8,204.1l-5.6-5.5h-4.9c-0.1,0-0.2-0.1-0.2-0.2s0.1-0.2,0.2-0.2h5l5.6,5.6     C228,203.9,228,204,227.8,204.1C227.8,204.1,227.8,204.1,227.8,204.1z"/>
		</g>
		<g>
			<path class="st13" d="M240.5,195.6L240.5,195.6l-6.4-6.3h-5c-0.1,0-0.2-0.1-0.2-0.2s0.1-0.2,0.2-0.2h5.2l6.5,6.5     c0.1,0.1,0.1,0.2,0,0.3C240.6,195.6,240.6,195.6,240.5,195.6z"/>
		</g>
		<g>
			<path class="st13" d="M223.6,229.6h-4.4c-0.2,0-0.4-0.2-0.4-0.4s0.2-0.4,0.4-0.4h4.4c0.2,0,0.4,0.2,0.4,0.4     C224.1,229.6,224,229.6,223.6,229.6z"/>
		</g>
		<g>
			<path class="st13" d="M222,197.8h-4.4c-0.2,0-0.4-0.2-0.4-0.4s0.2-0.4,0.4-0.4h4.4c0.2,0,0.4,0.2,0.4,0.4     C222.5,197.6,222.3,197.8,222,197.8z"/>
		</g>
		<g>
			<path class="st13" d="M233.8,188.5h-4.4c-0.2,0-0.4-0.2-0.4-0.4s0.2-0.4,0.4-0.4h4.4c0.2,0,0.4,0.2,0.4,0.4     C234.3,188.1,234.1,188.5,233.8,188.5z"/>
		</g>
		<g>
			<path class="st13" d="M263,188.6h-4.4c-0.2,0-0.4-0.2-0.4-0.4s0.2-0.4,0.4-0.4h4.4c0.2,0,0.4,0.2,0.4,0.4S263.3,188.6,263,188.6z     "/>
		</g>
		<g>
			<path class="st13" d="M264.8,231.1h-4.4c-0.2,0-0.4-0.2-0.4-0.4s0.2-0.4,0.4-0.4h4.4c0.2,0,0.4,0.2,0.4,0.4     C265.3,230.9,265.1,231.1,264.8,231.1z"/>
		</g>
		<g>
			<path class="st13" d="M249.8,235.9h-4.4c-0.2,0-0.4-0.2-0.4-0.4s0.2-0.4,0.4-0.4h4.4c0.2,0,0.4,0.2,0.4,0.4     C250.3,235.6,250,235.9,249.8,235.9z"/>
		</g>
	</g>
</g>
<g>
	<rect x="290.9" y="209" class="st4" width="64.9" height="3.1"/>
	<rect x="290.9" y="202.4" class="st4" width="27.7" height="3.1"/>
	<rect x="290.9" y="216" class="st4" width="64.9" height="3.1"/>
	<rect x="290.9" y="222.7" class="st4" width="53.2" height="3.1"/>
</g>
<g>
	<g>
		
			<linearGradient id="SVGID_1_" gradientUnits="userSpaceOnUse" x1="-1363.4658" y1="310.8715" x2="-1363.4658" y2="872.1" gradientTransform="matrix(1 0 0 1 0 6.103516e-05)">
			<stop offset="0" style="stop-color:#415175"/>
			<stop offset="0.3805" style="stop-color:#29837D"/>
			<stop offset="0.7946" style="stop-color:#12B484"/>
			<stop offset="1" style="stop-color:#09C787"/>
		</linearGradient>
		<path class="st14" d="M-1612.3,860.7c-107-86.6,46.9-125.9-30.6-193.5s-34.4-296.4,93.7-306.1c135.2-10.2,145.6,99.7,196.1,18.1    c47.7-77.1,215.8-120.6,208.3,46.5s144.1,109.9,86,211.7c-58,101.8,37.4,207.6-7,234.7L-1612.3,860.7z"/>
		
			<linearGradient id="SVGID_2_" gradientUnits="userSpaceOnUse" x1="-1760.288" y1="757.7949" x2="-1220.0487" y2="757.7949" gradientTransform="matrix(1 0 0 1 0 6.103516e-05)">
			<stop offset="0" style="stop-color:#415175"/>
			<stop offset="0.3805" style="stop-color:#29837D"/>
			<stop offset="0.7946" style="stop-color:#12B484"/>
			<stop offset="1" style="stop-color:#09C787"/>
		</linearGradient>
		<path class="st15" d="M-1224.8,828.8c-183.9-23-207.6-132.1-301.9-91.4s-72.4-109-161.3-95.8c-88.3,13.1-83.2,190.8-50.3,219.3    c32.8,28.5,341.4,4.4,341.4,4.4s162.1,0.7,172.4-12C-1214.3,840.5-1224.8,828.8-1224.8,828.8"/>
		
			<linearGradient id="SVGID_3_" gradientUnits="userSpaceOnUse" x1="-1495.0958" y1="753.1174" x2="-956.7675" y2="753.1174" gradientTransform="matrix(1 0 0 1 0 6.103516e-05)">
			<stop offset="0" style="stop-color:#09C787"/>
			<stop offset="0.2054" style="stop-color:#12B484"/>
			<stop offset="0.6195" style="stop-color:#29837D"/>
			<stop offset="1" style="stop-color:#415175"/>
		</linearGradient>
		<path class="st16" d="M-1490.7,834.6c183.3-27.7,204.1-137.4,299.4-99.1c95.3,38.3,69.6-110.8,158.8-99.9    c88.6,10.8,88,188.6,55.9,218c-32.1,29.4-341.1,13.1-341.1,13.1s-162,4.8-172.7-7.6C-1500.9,846.6-1490.7,834.6-1490.7,834.6"/>
		
			<linearGradient id="SVGID_4_" gradientUnits="userSpaceOnUse" x1="-1108.7059" y1="484.8304" x2="-1041.4844" y2="484.8304" gradientTransform="matrix(1 0 0 1 0 6.103516e-05)">
			<stop offset="0" style="stop-color:#415175"/>
			<stop offset="0.3805" style="stop-color:#29837D"/>
			<stop offset="0.7946" style="stop-color:#12B484"/>
			<stop offset="1" style="stop-color:#09C787"/>
		</linearGradient>
		<path class="st17" d="M-1092.9,438.9c-52.9,7.2,43.8,113.6,50.6,88C-1035.6,501.4-1070.3,435.8-1092.9,438.9z"/>
		
			<linearGradient id="SVGID_5_" gradientUnits="userSpaceOnUse" x1="-1440.157" y1="350.3071" x2="-1368.5435" y2="350.3071" gradientTransform="matrix(1 0 0 1 0 6.103516e-05)">
			<stop offset="0" style="stop-color:#415175"/>
			<stop offset="0.3805" style="stop-color:#29837D"/>
			<stop offset="0.7946" style="stop-color:#12B484"/>
			<stop offset="1" style="stop-color:#09C787"/>
		</linearGradient>
		<path class="st18" d="M-1385.8,383.8c47-37.9-13.8-89.4-45.4-61.3S-1402.4,397.2-1385.8,383.8z"/>
		
			<linearGradient id="SVGID_6_" gradientUnits="userSpaceOnUse" x1="-1372.15" y1="853.4796" x2="-1372.15" y2="898.4053" gradientTransform="matrix(1 0 0 1 0 6.103516e-05)">
			<stop offset="0" style="stop-color:#09C787"/>
			<stop offset="0.2054" style="stop-color:#12B484"/>
			<stop offset="0.6195" style="stop-color:#29837D"/>
			<stop offset="1" style="stop-color:#415175"/>
		</linearGradient>
		<ellipse class="st19" cx="-1372.2" cy="875.9" rx="367.6" ry="22.5"/>
	</g>
	<g>
		<path class="st5" d="M-1642.4,505.9c0,2.4-1.9,4.3-4.3,4.3s-4.3-1.9-4.3-4.3s1.9-4.3,4.3-4.3S-1642.4,503.6-1642.4,505.9z"/>
		<path class="st5" d="M-1416.3,417.5c1.6,1.8,1.4,4.5-0.4,6c-1.8,1.6-4.5,1.4-6-0.4c-1.6-1.8-1.4-4.5,0.4-6    C-1420.6,415.5-1417.9,415.7-1416.3,417.5z"/>
		<path class="st5" d="M-1621.4,467.9c0,1.5-1.2,2.7-2.7,2.7s-2.7-1.2-2.7-2.7s1.2-2.7,2.7-2.7S-1621.4,466.4-1621.4,467.9z"/>
		<circle class="st5" cx="-1085.2" cy="582.6" r="1.5"/>
		<path class="st5" d="M-1404.4,443.8c0.5,0.6,0.5,1.5-0.1,2.1c-0.6,0.5-1.5,0.5-2.1-0.1c-0.6-0.6-0.5-1.5,0.1-2.1    C-1405.9,443.1-1404.9,443.2-1404.4,443.8z"/>
		<circle class="st5" cx="-1247.7" cy="391.7" r="1.5"/>
		<circle class="st5" cx="-1338.7" cy="414" r="4.3"/>
		<circle class="st5" cx="-1056.3" cy="500.5" r="1.5"/>
		<path class="st5" d="M-1088.2,472.4c0,2.4-1.9,4.3-4.3,4.3c-2.4,0-4.3-1.9-4.3-4.3s1.9-4.3,4.3-4.3    C-1090.1,468.1-1088.2,470.1-1088.2,472.4z"/>
	</g>
	<g>
		<polygon class="st20" points="-1287.1,346.7 -1228.9,306.7 -1240.9,351.4   "/>
		<polygon class="st21" points="-1228.9,306.7 -1273.1,304.8 -1287.1,346.7   "/>
		
			<rect x="-1274.3" y="318.7" transform="matrix(0.8235 -0.5673 0.5673 0.8235 -412.715 -648.8951)" class="st5" width="50.2" height="40.3"/>
		<polygon class="st22" points="-1228.9,306.7 -1203.8,343.2 -1261.9,383.3 -1287.1,346.7 -1245.4,345   "/>
	</g>
	<g>
		<g>
			<g>
				<g>
					<path class="st23" d="M-1510.6,357.1v-13.7h-10.9c-0.7-2.9-1.9-5.7-3.4-8.2l7.7-7.7l-9.7-9.7l-7.7,7.7       c-2.5-1.5-5.2-2.7-8.2-3.4v-10.9h-13.7v10.9c-2.9,0.7-5.7,1.9-8.2,3.4l-7.7-7.7l-9.7,9.7l7.7,7.7c-1.5,2.5-2.7,5.2-3.4,8.2       h-10.9v13.7h10.9c0.7,2.9,1.9,5.7,3.4,8.2l-7.7,7.7l9.7,9.7l7.7-7.7c2.5,1.5,5.3,2.7,8.2,3.4v10.9h13.7v-10.9       c2.9-0.7,5.7-1.9,8.2-3.4l7.7,7.7l9.7-9.7l-7.7-7.7c1.5-2.5,2.7-5.3,3.4-8.2H-1510.6z M-1549.6,367.3c-9.4,0-17-7.6-17-17       s7.6-17,17-17c9.4,0,17,7.6,17,17C-1532.6,359.7-1540.2,367.3-1549.6,367.3z"/>
				</g>
			</g>
		</g>
	</g>
	<g>
		<g>
			<g>
				<g>
					<path class="st5" d="M-1635.2,758.5v-16.2h-12.9c-0.8-3.5-2.2-6.7-4-9.7l9.2-9.2l-11.5-11.5l-9.2,9.2c-3-1.8-6.2-3.2-9.7-4       v-12.9h-16.2V717c-3.5,0.9-6.7,2.2-9.7,4l-9.1-9.2l-11.5,11.5l9.1,9.2c-1.8,3-3.2,6.2-4,9.7h-12.9v16.2h12.9       c0.8,3.5,2.2,6.7,4,9.7l-9.1,9.1l11.5,11.5l9.1-9.1c3,1.8,6.2,3.2,9.7,4v12.9h16.2v-12.9c3.5-0.8,6.7-2.2,9.7-4l9.2,9.1       l11.5-11.5l-9.2-9.1c1.8-3,3.2-6.2,4-9.7L-1635.2,758.5L-1635.2,758.5z M-1681.4,770.6c-11.1,0-20.2-9.1-20.2-20.2       c0-11.2,9-20.2,20.2-20.2c11.2,0,20.2,9,20.2,20.2C-1661.3,761.5-1670.3,770.6-1681.4,770.6z"/>
				</g>
			</g>
		</g>
	</g>
	<g>
		<path class="st5" d="M-1000.1,712.5V730c0,2.4-1.9,4.2-4.2,4.2h-42.1l-11.4,10.6l4.3-10.6h-0.1c-2.4,0-4.2-1.9-4.2-4.2v-17.4    c0-2.3,1.9-4.2,4.2-4.2h49.3C-1002,708.3-1000.1,710.2-1000.1,712.5z"/>
	</g>
	<g>
		<g>
			<path class="st24" d="M-1204.9,751.1c-11.2,0-20.3,9.1-20.3,20.3s9.1,20.3,20.3,20.3c11.2,0,20.3-9.1,20.3-20.3     C-1184.7,760.2-1193.8,751.1-1204.9,751.1z"/>
			<path class="st25" d="M-1114.7,782v-21.1h-24.3c-1.7-10.6-5.8-20.3-11.9-28.6l17.2-17.2l-14.9-14.9l-17.2,17.2     c-8.3-6-18.1-10.2-28.6-11.9v-24.3h-21.1v24.3c-10.6,1.7-20.3,5.8-28.7,11.9l-17.2-17.2l-14.9,14.9l17.2,17.2     c-6,8.3-10.2,18.1-11.9,28.7h-24.3v21h24.3c1.7,10.6,5.8,20.3,11.9,28.7l-17.2,17.2l14.9,14.9l17.2-17.2     c8.3,6,18.1,10.2,28.7,11.9v24.3h21.1v-24.3c10.6-1.7,20.3-5.8,28.7-11.9l17.2,17.2l14.9-14.9l-17.2-17.2     c6-8.3,10.2-18.1,11.9-28.7L-1114.7,782L-1114.7,782z M-1204.9,808.3c-20.4,0-36.9-16.5-36.9-36.9s16.5-36.9,36.9-36.9     c20.4,0,36.9,16.5,36.9,36.9S-1184.6,808.3-1204.9,808.3z"/>
		</g>
		<g>
			<path class="st5" d="M-1138.2,653.2c-4.6,0-8.4,3.8-8.4,8.4c0,4.6,3.8,8.4,8.4,8.4s8.4-3.8,8.4-8.4     C-1129.8,656.9-1133.4,653.2-1138.2,653.2z"/>
			<path class="st5" d="M-1100.8,665.9v-8.7h-10c-0.7-4.4-2.4-8.4-4.9-11.8l7.1-7.1l-6.2-6.2l-7.1,7.1c-3.4-2.5-7.5-4.2-11.8-4.9     v-10h-8.7v10c-4.4,0.7-8.4,2.4-11.8,4.9l-7.1-7.1l-6.2,6.2l7.1,7.1c-2.5,3.4-4.2,7.5-4.9,11.8h-10v8.7h10     c0.7,4.4,2.4,8.4,4.9,11.8l-7.1,7.1l6.2,6.2l7.1-7.1c3.4,2.5,7.5,4.2,11.8,4.9v10h8.7v-10c4.4-0.7,8.4-2.4,11.8-4.9l7.1,7.1     l6.2-6.2l-7.1-7.1c2.5-3.4,4.2-7.5,4.9-11.8H-1100.8z M-1138.2,676.8c-8.4,0-15.2-6.8-15.2-15.2s6.8-15.2,15.2-15.2     s15.2,6.8,15.2,15.2S-1129.7,676.8-1138.2,676.8z"/>
		</g>
	</g>
	<rect x="-1591.7" y="609.5" class="st26" width="52.5" height="52.5"/>
	<rect x="-1204.9" y="532.5" class="st27" width="52.5" height="52.5"/>
	<g>
		<path class="st28" d="M-1462.6,589.4h-112.4c-2.6,0-4.8-2.1-4.8-4.8v-55.3c0-2.6,2.1-4.8,4.8-4.8h112.4c2.6,0,4.8,2.1,4.8,4.8    v55.3C-1457.8,587.2-1459.9,589.4-1462.6,589.4z"/>
		<polygon class="st28" points="-1488.4,589.4 -1462.7,609.3 -1475.6,582.3   "/>
		<path class="st29" d="M-1475.6,550.4h-85.5c-1.9,0-3.5-1.5-3.5-3.5l0,0c0-1.9,1.5-3.5,3.5-3.5h85.5c1.9,0,3.5,1.5,3.5,3.5l0,0    C-1472.1,548.8-1473.7,550.4-1475.6,550.4z"/>
		<path class="st29" d="M-1475.6,570h-85.5c-1.9,0-3.5-1.5-3.5-3.5l0,0c0-1.9,1.5-3.5,3.5-3.5h85.5c1.9,0,3.5,1.5,3.5,3.5l0,0    C-1472.1,568.5-1473.7,570-1475.6,570z"/>
	</g>
	<path class="st30" d="M-1416.4,578.7l10.9,7.5l-0.7,6.1c0,0,5.1,40.7,13.5,52.2c10.7,0.5-13.6,9.3-16,23.3   c-9.7,2.2-20.6-2.9-21.7-13.7c0,0-5.6-17.9-4.5-41.4c0.6-11.5,8.2-26.9,12.6-27.5C-1417.9,584.5-1418.4,577-1416.4,578.7z"/>
	<path class="st31" d="M-1425.9,598.1c-4.3,27.8,2.4,47,10.3,48.5c10.9,2.2,18.6-11.5,18.6-11.5l2-7.7l-16.4,2.2l-5-18.3l-2.5-8.9   L-1425.9,598.1z"/>
	<g>
		<path class="st32" d="M-1301.3,661.3h-99.6c-1.2,0-2.1-0.9-2.1-2.1V518c0-1.2,0.9-2.1,2.1-2.1h99.6c1.2,0,2.1,0.9,2.1,2.1v141.1    C-1299.2,660.3-1300.1,661.3-1301.3,661.3z"/>
		<path class="st5" d="M-1309.3,652.3h-83.6c-1.2,0-2.1-0.9-2.1-2.1V527c0-1.2,0.9-2.1,2.1-2.1h83.6c1.2,0,2.1,0.9,2.1,2.1v123.2    C-1307.2,651.3-1308.1,652.3-1309.3,652.3z"/>
		<g>
			<polygon class="st22" points="-1323.3,667.6 -1330.4,662.1 -1337.7,667.6 -1337.7,635.7 -1323.3,635.7    "/>
			<path class="st33" d="M-1327.6,613.8L-1327.6,613.8c1.9-2.8,6.4-1.4,6.3,2l0,0c-0.1,2.4,2.3,4.1,4.6,3.3l0,0     c3.2-1.1,6,2.6,3.9,5.3l0,0c-1.5,1.9-0.6,4.7,1.8,5.4l0,0c3.3,1,3.3,5.6,0,6.6l0,0c-2.3,0.7-3.2,3.5-1.8,5.4l0,0     c2.1,2.7-0.6,6.5-3.9,5.3l0,0c-2.3-0.8-4.7,0.9-4.6,3.3l0,0c0.1,3.4-4.3,4.9-6.3,2l0,0c-1.4-2-4.3-2-5.7,0l0,0     c-1.9,2.8-6.4,1.4-6.3-2l0,0c0.1-2.4-2.3-4.1-4.6-3.3l0,0c-3.2,1.1-6-2.6-3.9-5.3l0,0c1.5-1.9,0.6-4.7-1.8-5.4l0,0     c-3.3-1-3.3-5.6,0-6.6l0,0c2.3-0.7,3.2-3.5,1.8-5.4l0,0c-2.1-2.7,0.6-6.5,3.9-5.3l0,0c2.3,0.8,4.7-0.9,4.6-3.3l0,0     c-0.1-3.4,4.3-4.9,6.3-2l0,0C-1331.9,615.8-1328.9,615.8-1327.6,613.8z"/>
			<circle class="st22" cx="-1330.4" cy="633.2" r="13.7"/>
		</g>
		<path class="st32" d="M-1317.1,539.3h-67.9c-0.3,0-0.5-0.2-0.5-0.5v-6.3c0-0.3,0.2-0.5,0.5-0.5h67.9c0.3,0,0.5,0.2,0.5,0.5v6.3    C-1316.6,539.1-1316.8,539.3-1317.1,539.3z"/>
		<path class="st32" d="M-1344.2,556.1h-40.9c-0.3,0-0.5-0.2-0.5-0.5v-6.3c0-0.3,0.2-0.5,0.5-0.5h40.9c0.3,0,0.5,0.2,0.5,0.5v6.3    C-1343.7,555.9-1343.9,556.1-1344.2,556.1z"/>
		<path class="st32" d="M-1335.2,572.9h-49.8c-0.3,0-0.5-0.2-0.5-0.5v-6.3c0-0.3,0.2-0.5,0.5-0.5h49.8c0.3,0,0.5,0.2,0.5,0.5v6.3    C-1334.7,572.7-1334.9,572.9-1335.2,572.9z"/>
		<path class="st32" d="M-1319.4,590.5h-65.6c-0.3,0-0.5-0.2-0.5-0.5v-6.3c0-0.3,0.2-0.5,0.5-0.5h65.6c0.3,0,0.5,0.2,0.5,0.5v6.3    C-1318.9,590.2-1319.1,590.5-1319.4,590.5z"/>
		<path class="st32" d="M-1319.4,609.6h-65.6c-0.3,0-0.5-0.2-0.5-0.5v-6.3c0-0.3,0.2-0.5,0.5-0.5h65.6c0.3,0,0.5,0.2,0.5,0.5v6.3    C-1318.9,609.4-1319.1,609.6-1319.4,609.6z"/>
		<path class="st32" d="M-1364.1,639.9h-21c-0.3,0-0.5-0.2-0.5-0.5v-6.3c0-0.3,0.2-0.5,0.5-0.5h21c0.3,0,0.5,0.2,0.5,0.5v6.3    C-1363.4,639.7-1363.8,639.9-1364.1,639.9z"/>
	</g>
	<path class="st34" d="M-1419.1,623.8l1.5,9.4c0.3,1.7,1.3,3.1,2.7,3.9l0,0c1.7,1,3.8,0.9,5.5-0.1l30-18.5c0,0,3.3-0.1,7-1.9   c3.7-1.8,6.8-2.9,6.9-4.1c0.1-1.2-4.5,0.1-4.5,0.1s7.6-2.3,7.2-3.6c-0.3-1.3-10.2,1.3-10.2,1.3s9.9-4.4,9.2-6   c-0.8-1.5-11.2,3-11.2,3s8.9-4.7,8.3-5.9c-0.7-1.1-15,5-15,5l-2.4-2.6c0,0,0.1,6.3-2.1,8c-2.2,1.7-20.8,8.7-23.4,9.4   C-1412.1,622.1-1419.1,623.8-1419.1,623.8z"/>
	<g>
		<path class="st35" d="M-1397.4,551.2c6.2,7.1,5.1,11.9,3,14.4c0,0-10.9,1.1-13.8,0.8c0,0,0.9,7.9,0.1,9.7l-7.6-3c0,0-3-5-1.7-9.6    c1.4-4.6,4.9-8.3,9.1-9.1c4.1-0.8,9.8,2.1,11.4-3.1"/>
		<path class="st34" d="M-1394.4,565.6c0,0-0.2,4.8,2.2,6.7s3.3,1.7,3.3,1.7s-2.2,3.1-2.5,5.9c-0.3,2.8-2.5,5.4-6.7,5.9    s-7.2-1.5-7.2-1.5l-2.8,1c0,0-5.1-1.3-6.8-4.2l1.9-2.7c0,0-4.3-4.3-1.3-6.2s6.2,3.9,6.2,3.9l-0.4-9.8L-1394.4,565.6z"/>
		<path class="st36" d="M-1405.4,584.2c-3.5-1.6-7.7-5.9-7.7-5.9s4,5.5,5.8,7.3L-1405.4,584.2z"/>
	</g>
	<polygon class="st30" points="-1422.1,627.4 -1407.1,619.6 -1407.6,594.3 -1419.9,589.6 -1426.9,594.8  "/>
	<path class="st34" d="M-1383.9,604c0-4.2,3.3-6.1,2.4,2.6c-0.9,8.7-1.1,5.1-1.1,5.1L-1383.9,604z"/>
	<path class="st5" d="M-1454.8,715.8l-21.3,15.3h40.5c0,0-4.3-7.7-12-7.6c-7.7,0.1,1.6-4.4,1.6-4.4L-1454.8,715.8z"/>
	<path class="st37" d="M-1388.9,667.6l-3.8,42.2l-58.3,11.9l-3.7-5.8c0,0,24.4-9.9,31.9-14.5s13.8-5.1,13.8-5.1l-15.7-32.1   L-1388.9,667.6z"/>
	<path class="st38" d="M-1388.9,667.6l-25.3-2.5l-8.9,2.5l5.5,11.2c8.7,4.7,18.8,3.8,27.6,0.9L-1388.9,667.6z"/>
	<path class="st5" d="M-1316.8,690.4l12.3,8.4l23.6-17.6c0,0-5.5-4.6-14.2,0s-15.7,6.2-15.7,6.2L-1316.8,690.4z"/>
	<path class="st37" d="M-1427.7,661.6l30.8-8.5l28.3-12.7c3-1.4,6.6-0.8,9,1.5l48.6,45.4l-5.8,3.1c0,0-17.9-11.8-28.4-16.9   c-12.7-6.1-21.7-13.5-21.7-13.5s-36.5,28.9-58,5.9L-1427.7,661.6z"/>
	<g>
		<path class="st5" d="M-1605.4,579.7c0,7.2-5.9,13.1-13.1,13.1c-7.2,0-13.1-5.9-13.1-13.1c0-7.2,5.9-13.1,13.1-13.1    C-1611.2,566.6-1605.4,572.4-1605.4,579.7z"/>
		<path class="st5" d="M-1591.4,553.7c0,2.7-2.2,5-5,5c-2.7,0-5-2.2-5-5c0-2.7,2.2-5,5-5C-1593.8,548.8-1591.4,551-1591.4,553.7z"/>
	</g>
	<g>
		<circle class="st39" cx="-1297.7" cy="482.7" r="29.3"/>
		<path class="st39" d="M-1271.4,466.5c0-6-10.7-16.8-16.8-16.8c6,0,16.8-10.7,16.8-16.8c0,6,10.7,16.8,16.8,16.8    C-1260.7,449.7-1271.4,460.4-1271.4,466.5z"/>
	</g>
	<g>
		<path class="st40" d="M-1266.9,677.2l42.2,74.3l11.1,0.4c0,0-40.1-89-40.7-87.2c-0.7,1.8-14.7,4.6-14.7,4.6L-1266.9,677.2z"/>
		<polyline class="st40" points="-1249.7,660 -1208.3,751.5 -1202.2,745.4 -1197.8,741.2 -1235.8,653.2 -1247.9,658.2   "/>
		<path class="st41" d="M-1270.4,662.9c-22.1,22.1-22.1,58,0,80.1c22.1,22.1,57.9,22.1,80.1,0c22.1-22.1,22.1-57.9,0-80.1    C-1212.4,640.8-1248.3,640.8-1270.4,662.9z M-1199.3,734c-17.2,17.2-45,17.2-62.2,0c-17.2-17.2-17.2-45,0-62.2    c17.2-17.2,45-17.2,62.2,0C-1182.2,689-1182.2,716.9-1199.3,734z"/>
		<path class="st41" d="M-1133.6,800.1L-1133.6,800.1c-2.9,2.9-7.5,2.9-10.4,0l-53.9-53.9l10.4-10.4l53.9,53.9    C-1130.8,792.6-1130.8,797.2-1133.6,800.1z"/>
		<path class="st42" d="M-1124.6,809.1L-1124.6,809.1c-4,4-10.4,4-14.4,0l-49.9-49.9c-1.1-1.1-1.1-2.9,0-4l10.4-10.4    c1.1-1.1,2.9-1.1,4,0l49.9,49.9C-1120.6,798.7-1120.6,805.1-1124.6,809.1z"/>
	</g>
	<g>
		<g>
			<g>
				<path class="st5" d="M-1190.3,638.2l0.9-2.1c-1.4-0.6-2.8-1.2-4.2-1.8l-0.9,2.1C-1193.2,637-1191.7,637.6-1190.3,638.2z"/>
			</g>
			<g>
				<path class="st5" d="M-1200.9,633.5l1-2.1c-2.9-1.3-5.7-2.7-8.5-4.1l-1,2.1C-1206.8,630.8-1203.9,632.1-1200.9,633.5z       M-1215.8,626.1l1.1-2c-2.8-1.5-5.6-3.1-8.2-4.6l-1.2,2C-1221.4,623-1218.7,624.6-1215.8,626.1z M-1230.2,617.7l1.2-1.9      c-2.7-1.7-5.3-3.5-7.8-5.2l-1.3,1.9C-1235.6,614.2-1232.8,616-1230.2,617.7z M-1243.8,608.1l1.4-1.8c-2.5-2-4.9-4.1-7.1-6.1      l-1.6,1.7C-1248.8,604-1246.3,606.1-1243.8,608.1z M-1255.9,596.9l1.7-1.6c-2.2-2.4-4.2-4.8-5.9-7.2l-1.9,1.3      C-1260.3,591.9-1258.3,594.4-1255.9,596.9z M-1265.9,583.3l2-1.1c-0.7-1.4-1.4-2.8-2-4.1c-0.6-1.4-1.1-2.9-1.5-4.3l-2.2,0.7      c0.4,1.5,1,3.1,1.6,4.6C-1267.4,580.4-1266.7,581.9-1265.9,583.3z M-1268.7,567.1c-0.3-3-0.2-6.1,0.3-9.1l-2.3-0.4      c-0.6,3.2-0.7,6.5-0.4,9.7L-1268.7,567.1z M-1266.6,551.4c1-2.7,2.4-5.5,4.1-8.2l-2-1.2c-1.8,2.8-3.2,5.7-4.3,8.6L-1266.6,551.4      z M-1258.3,537.5l0.5-0.6c1.8-2.2,3.7-4.3,5.6-6.4l-1.7-1.6c-2,2.1-3.9,4.3-5.7,6.5l-0.5,0.7L-1258.3,537.5z M-1247.3,525.5      c2.2-2.1,4.5-4.2,6.9-6.3l-1.5-1.8c-2.5,2.1-4.8,4.2-7,6.4L-1247.3,525.5z M-1234.9,514.8c2.3-1.8,4.7-3.7,7.5-5.7l-1.4-1.9      c-2.8,2-5.2,3.9-7.6,5.7L-1234.9,514.8z M-1221.7,505l3-2.1c1.6-1.1,3.2-2.2,4.7-3.3l-1.3-1.9c-1.5,1.1-3.1,2.2-4.7,3.3l-3,2.1      L-1221.7,505z M-1208.3,495.4c2.9-2.2,5.3-4.2,7.4-6.1l-1.6-1.7c-2,1.8-4.3,3.8-7.2,5.9L-1208.3,495.4z M-1195.8,484.1      c2.2-2.7,3.9-5.3,5.2-8.2l-2.1-1c-1.2,2.7-2.8,5.2-4.9,7.7L-1195.8,484.1z"/>
			</g>
			<g>
				<path class="st5" d="M-1188.3,468.9c0.3-1.5,0.5-3.1,0.7-4.7l-2.3-0.2c-0.1,1.5-0.3,3-0.6,4.4L-1188.3,468.9z"/>
			</g>
		</g>
		<g>
			<polygon class="st43" points="-1192.4,465.6 -1175.1,467.8 -1168.4,429.1 -1191.3,457.4    "/>
			<polygon class="st5" points="-1196.9,456.7 -1168.4,429.1 -1192.4,465.6    "/>
			<polygon class="st5" points="-1168.4,429.1 -1181.3,474.7 -1189.7,468.3    "/>
		</g>
	</g>
	<g>
		<g>
			<g>
				<path class="st44" d="M-1578.8,867.5l-2.3,0.7c-7.5-22.9-15.2-45.9-27-66.8c-5.9-10.4-12.9-20.2-21.2-28.8s-17.8-16-28.1-21.9      l1.2-2.1c10.5,6,20.2,13.6,28.7,22.3c8.4,8.8,15.6,18.7,21.5,29.3C-1594.1,821.4-1586.4,844.6-1578.8,867.5z"/>
			</g>
			<path class="st44" d="M-1633.8,746.3c-0.1,3.9-1.8,7.3-3.5,9.6c-1.7,2.4-3.3,3.8-3.3,3.8s-1.3-1.7-2.7-4.3s-2.9-6.1-3-10     c-0.2-3.9,1.1-7.4,2.5-10s2.8-4.1,2.8-4.1s1.9,1.7,3.7,4.4C-1635.4,738.6-1633.7,742.4-1633.8,746.3z"/>
			<path class="st44" d="M-1641.6,779.5c3.5-1,6.6-3.1,8.8-5s3.4-3.7,3.4-3.7s-1.8-1.2-4.5-2s-6.4-1.3-9.9-0.1s-6.3,3.8-8.2,5.9     c-1.9,2.2-3,4-3,4s1.6,0.7,4.1,1.1C-1648.4,780.3-1645.1,780.5-1641.6,779.5z"/>
			<path class="st44" d="M-1654.4,762.6c2.2-1,3.9-2.8,5.1-4.3c1.2-1.5,1.7-2.8,1.7-2.8s-1.3-0.5-3.2-0.8c-1.9-0.3-4.3-0.1-6.5,1     c-2.2,1.1-3.8,3-4.8,4.6s-1.5,2.9-1.5,2.9S-1658.9,764.6-1654.4,762.6z"/>
			<path class="st44" d="M-1664.1,750.7c2.2,1,4.6,1.1,6.4,1c1.9-0.1,3.2-0.5,3.2-0.5s-0.4-1.3-1.5-2.9c-1-1.6-2.7-3.5-5-4.6     s-4.8-1-6.7-0.7c-1.9,0.3-3.2,0.9-3.2,0.9s0.6,1.3,1.7,2.7C-1667.9,748-1666.3,749.7-1664.1,750.7z"/>
			<path class="st44" d="M-1609.1,764.9c-1.1,4.8-4.1,8.3-6.7,10.7c-2.6,2.4-4.9,3.6-4.9,3.6s-0.3-0.6-0.7-1.6     c-0.4-1-0.9-2.5-1.4-4.2c-1-3.5-2-8.1-1.3-12.8s3-8.7,5.2-11.5c2.2-2.8,4.4-4.3,4.4-4.3s1.9,2.5,3.6,6.4     C-1609.2,755-1607.9,760.1-1609.1,764.9z"/>
			<path class="st44" d="M-1627.3,802.6c4.5-0.2,8.8-1.9,11.9-3.6c3.1-1.7,5.1-3.5,5.1-3.5s-1.8-1.9-4.9-3.6     c-1.5-0.9-3.3-1.7-5.3-2.3c-2-0.5-4.2-0.8-6.5-0.5c-4.5,0.5-8.5,2.9-11.3,5s-4.6,4-4.6,4s0.4,0.3,1.2,0.7c0.8,0.5,1.9,1,3.3,1.6     C-1635.7,801.5-1631.8,802.8-1627.3,802.6z"/>
			<path class="st44" d="M-1587.4,797c-2.1,4.3-5.8,7.1-8.9,8.9c-3.1,1.8-5.6,2.5-5.6,2.5s-0.7-2.5-0.8-6.1     c-0.2-3.6,0.1-8.3,1.9-12.6c1.9-4.4,5.1-7.6,8-9.7c2.9-2.1,5.3-3,5.3-3s1.1,2.9,1.7,6.8C-1585.3,787.6-1585.3,792.6-1587.4,797z"/>
			<path class="st44" d="M-1612.8,830.4c4.5,0.7,9-0.3,12.4-1.5c3.3-1.2,5.6-2.6,5.6-2.6s-1.5-2.1-4.2-4.4     c-2.7-2.3-6.6-4.7-11.2-5.1c-4.6-0.5-8.9,0.9-12.2,2.4c-3.2,1.5-5.4,3-5.4,3s1.5,1.7,4.1,3.6     C-1621.1,827.6-1617.3,829.7-1612.8,830.4z"/>
			<path class="st44" d="M-1573.2,829.2c-2.7,3.9-6.7,6.2-9.9,7.6c-3.3,1.4-5.8,1.8-5.8,1.8s-0.3-2.6,0-6.2     c0.3-3.6,1.2-8.1,3.8-12.1c2.5-4,6.3-6.6,9.5-8.2c3.2-1.6,5.7-2.1,5.7-2.1s0.6,2.8,0.5,6.6     C-1569.6,820.5-1570.4,825.3-1573.2,829.2z"/>
			<path class="st44" d="M-1601.8,859.9c9,2.3,18.2-2.7,18.2-2.7s-5.5-9-14.5-11.1c-9-2-18.1,3.3-18.1,3.3     S-1610.8,857.5-1601.8,859.9z"/>
		</g>
		<g>
			<g>
				<path class="st45" d="M-1353.6,885.5l-1.5,0.1c-1.3-30.8,4.5-61.9,17.2-90l1.4,0.6C-1349.1,824.1-1354.9,855-1353.6,885.5z"/>
			</g>
			<path class="st45" d="M-1331.9,809.1c-4.7,0.9-9.3-1.8-9.3-1.8s0.7-1.1,2.1-2.4c1.4-1.2,3.3-2.5,5.7-3c4.7-0.8,9.2,2.2,9.2,2.2     S-1327.4,808.1-1331.9,809.1z"/>
			<path class="st45" d="M-1353.4,812c2.9,3.9,8.4,4.5,8.4,4.5s0.5-5.4-2.3-9.3c-2.8-4-8.2-4.9-8.2-4.9s-0.2,1.4-0.1,3.4     C-1355.6,807.6-1354.9,810.1-1353.4,812z"/>
			<path class="st45" d="M-1345.2,798.9c1.8,2.7,5.3,3.4,5.3,3.4s0.5-3.5-1.1-6.2c-1.7-2.7-5.2-3.5-5.2-3.5     S-1346.9,796.2-1345.2,798.9z"/>
			<path class="st45" d="M-1338.1,791.2c-1.2,3,0.1,6.3,0.1,6.3s3.2-1.5,4.4-4.4c1.2-2.9,0-6.2,0-6.2S-1336.8,788.2-1338.1,791.2z"/>
			<path class="st45" d="M-1335.1,825.2c-2.8,0.8-5.7,0.5-7.9,0c-2.2-0.5-3.7-1.2-3.7-1.2s0.8-1.5,2.3-3.1s3.7-3.5,6.6-4.2     c5.7-1.4,11.5,1.8,11.5,1.8s-0.8,1.3-2.4,2.7C-1330.2,822.7-1332.3,824.4-1335.1,825.2z"/>
			<path class="st45" d="M-1361.1,831.2c2,2.2,4.8,3.3,6.9,3.9c2.2,0.6,3.8,0.6,3.8,0.6s-0.1-6.6-4-11.1s-10.5-5.1-10.5-5.1     s-0.1,1.8,0.3,4.2C-1364.1,826.1-1363.1,829-1361.1,831.2z"/>
			<path class="st45" d="M-1339.7,845.3c-5.4,2.2-11.7,0.1-11.7,0.1s0.6-1.5,1.9-3.3c1.3-1.8,3.4-3.8,6.1-4.9c2.7-1,5.7-0.9,7.9-0.5     c2.2,0.4,3.8,1,3.8,1s-0.7,1.3-2,3C-1334.9,842.3-1337.1,844.2-1339.7,845.3z"/>
			<path class="st45" d="M-1364.8,854.2c4.6,3.9,11.2,3.3,11.2,3.3s-0.2-1.6-1-3.8c-0.7-2.1-2-4.8-4.2-6.8c-4.4-4.1-11-3.9-11-3.9     s0,1.8,0.8,4.1C-1368.4,849.4-1367.2,852.2-1364.8,854.2z"/>
			<path class="st45" d="M-1341.9,864.9c-5.2,2.8-11.6,1.3-11.6,1.3s1.9-6.4,7.2-9c5.2-2.6,11.6-0.7,11.6-0.7     S-1336.9,862.1-1341.9,864.9z"/>
			<path class="st45" d="M-1366.1,876.3c4.9,3.4,11.5,2.1,11.5,2.1s-1.5-6.4-6.3-10s-11.4-2.7-11.4-2.7S-1371.1,872.8-1366.1,876.3z     "/>
		</g>
		<g>
			<path class="st46" d="M-1331.7,884.9c0,1.1-10.3,2-22.9,2c-12.6,0-22.9-0.9-22.9-2s10.3-2,22.9-2     C-1341.9,883-1331.7,883.8-1331.7,884.9z"/>
			<g>
				<g>
					<path class="st46" d="M-1353.6,885.5l-1.5,0.1c-1.3-30.8,4.5-61.9,17.2-90l1.4,0.6C-1349.1,824.1-1354.9,855-1353.6,885.5z"/>
				</g>
				<path class="st46" d="M-1331.9,809.1c-4.7,0.9-9.3-1.8-9.3-1.8s0.7-1.1,2.1-2.4c1.4-1.2,3.3-2.5,5.7-3c4.7-0.8,9.2,2.2,9.2,2.2      S-1327.4,808.1-1331.9,809.1z"/>
				<path class="st46" d="M-1353.4,812c2.9,3.9,8.4,4.5,8.4,4.5s0.5-5.4-2.3-9.3c-2.8-4-8.2-4.9-8.2-4.9s-0.2,1.4-0.1,3.4      C-1355.6,807.6-1354.9,810.1-1353.4,812z"/>
				<path class="st46" d="M-1345.2,798.9c1.8,2.7,5.3,3.4,5.3,3.4s0.5-3.5-1.1-6.2c-1.7-2.7-5.2-3.5-5.2-3.5      S-1346.9,796.2-1345.2,798.9z"/>
				<path class="st46" d="M-1338.1,791.2c-1.2,3,0.1,6.3,0.1,6.3s3.2-1.5,4.4-4.4c1.2-2.9,0-6.2,0-6.2S-1336.8,788.2-1338.1,791.2z"/>
				<path class="st46" d="M-1335.1,825.2c-2.8,0.8-5.7,0.5-7.9,0c-2.2-0.5-3.7-1.2-3.7-1.2s0.8-1.5,2.3-3.1s3.7-3.5,6.6-4.2      c5.7-1.4,11.5,1.8,11.5,1.8s-0.8,1.3-2.4,2.7C-1330.2,822.7-1332.3,824.4-1335.1,825.2z"/>
				<path class="st46" d="M-1361.1,831.2c2,2.2,4.8,3.3,6.9,3.9c2.2,0.6,3.8,0.6,3.8,0.6s-0.1-6.6-4-11.1s-10.5-5.1-10.5-5.1      s-0.1,1.8,0.3,4.2C-1364.1,826.1-1363.1,829-1361.1,831.2z"/>
				<path class="st46" d="M-1339.7,845.3c-5.4,2.2-11.7,0.1-11.7,0.1s0.6-1.5,1.9-3.3c1.3-1.8,3.4-3.8,6.1-4.9      c2.7-1,5.7-0.9,7.9-0.5c2.2,0.4,3.8,1,3.8,1s-0.7,1.3-2,3C-1334.9,842.3-1337.1,844.2-1339.7,845.3z"/>
				<path class="st46" d="M-1364.8,854.2c4.6,3.9,11.2,3.3,11.2,3.3s-0.2-1.6-1-3.8c-0.7-2.1-2-4.8-4.2-6.8c-4.4-4.1-11-3.9-11-3.9      s0,1.8,0.8,4.1C-1368.4,849.4-1367.2,852.2-1364.8,854.2z"/>
				<path class="st46" d="M-1341.9,864.9c-5.2,2.8-11.6,1.3-11.6,1.3s1.9-6.4,7.2-9c5.2-2.6,11.6-0.7,11.6-0.7      S-1336.9,862.1-1341.9,864.9z"/>
				<path class="st46" d="M-1366.1,876.3c4.9,3.4,11.5,2.1,11.5,2.1s-1.5-6.4-6.3-10s-11.4-2.7-11.4-2.7S-1371.1,872.8-1366.1,876.3      z"/>
			</g>
		</g>
		<g>
			<ellipse class="st47" cx="-1152.3" cy="872.7" rx="22.9" ry="2"/>
			<g>
				<g>
					<path class="st44" d="M-1150.3,872.2l-2.1-0.2c4.8-42.3,15.5-84,31.9-123.3l1.9,0.8C-1134.8,788.7-1145.4,830.1-1150.3,872.2z"/>
				</g>
				<path class="st44" d="M-1111.9,767.4c-6.5,1.4-12.9-2.4-12.9-2.4s1-1.6,2.9-3.3c1.9-1.7,4.6-3.6,7.8-4.2      c6.5-1.3,12.9,2.7,12.9,2.7S-1105.4,766-1111.9,767.4z"/>
				<path class="st44" d="M-1141.8,771.3c4,5.4,11.5,6.4,11.5,6.4s0.8-7.4-3.2-12.9c-3.9-5.4-11.3-6.7-11.3-6.7s-0.3,1.9-0.1,4.6      C-1144.6,765.4-1143.8,768.7-1141.8,771.3z"/>
				<path class="st44" d="M-1130.3,753.5c2.5,3.6,7.3,4.5,7.3,4.5s0.7-4.9-1.7-8.5s-7.3-4.7-7.3-4.7S-1132.9,749.9-1130.3,753.5z"/>
				<path class="st44" d="M-1120.8,742.7c-1.5,4.2,0.5,8.7,0.5,8.7s4.4-2.2,5.9-6.3c1.6-4.1-0.3-8.6-0.3-8.6      S-1119.3,738.6-1120.8,742.7z"/>
				<path class="st44" d="M-1116.8,790.2c-7.8,2.1-16-2.1-16-2.1s1.1-2,3.3-4.2c2.2-2.2,5.3-4.7,9.3-5.7c7.9-1.9,15.9,2.6,15.9,2.6      s-1.2,1.8-3.4,3.9C-1109.7,786.8-1112.8,789.2-1116.8,790.2z"/>
				<path class="st44" d="M-1152.8,797.1c5.3,6.3,14.5,7,14.5,7s0.4-9.2-4.8-15.5c-5.2-6.4-14.3-7.5-14.3-7.5s-0.2,2.4,0.2,5.6      C-1156.8,789.9-1155.6,793.9-1152.8,797.1z"/>
				<path class="st44" d="M-1124.7,818.4c-7.7,2.6-16.1-1-16.1-1s1-2.1,3-4.4c2-2.4,5-5,8.9-6.3c7.8-2.4,16.1,1.6,16.1,1.6      s-1.1,1.9-3.1,4.1C-1117.8,814.5-1120.8,817.1-1124.7,818.4z"/>
				<path class="st44" d="M-1160.3,827.6c5.8,5.9,15,6,15,6s-0.1-2.3-0.8-5.3c-0.7-3-2.2-6.8-5-9.9c-5.6-6.1-14.8-6.5-14.8-6.5      S-1166.1,821.7-1160.3,827.6z"/>
				<path class="st44" d="M-1130.4,845.7c-7.5,3.1-16.2,0-16.2,0s3.6-8.5,11.2-11.4c7.6-2.9,16.1,0.5,16.1,0.5      S-1122.9,842.6-1130.4,845.7z"/>
				<path class="st44" d="M-1165.4,857.2c6.1,5.6,15.3,5.1,15.3,5.1s-0.8-9.1-6.8-14.8s-15.2-5.6-15.2-5.6      S-1171.7,851.6-1165.4,857.2z"/>
			</g>
		</g>
		<g>
			<rect x="-1580.3" y="731.7" class="st39" width="119.1" height="141.1"/>
			<rect x="-1580.3" y="731.7" class="st48" width="15.1" height="141.1"/>
			<g>
				<g>
					<g>
						<path class="st49" d="M-1571.9,740c0,1-1.2,1.8-2.6,1.8h-7.2c-1.4,0-2.6-0.8-2.6-1.8s1.2-1.8,2.6-1.8h7.2        C-1573.2,738.3-1571.9,739.1-1571.9,740z"/>
					</g>
					<g>
						<path class="st49" d="M-1571.9,753.8c0,1-1.2,1.8-2.6,1.8h-7.2c-1.4,0-2.6-0.8-2.6-1.8s1.2-1.8,2.6-1.8h7.2        C-1573.2,752.1-1571.9,752.9-1571.9,753.8z"/>
					</g>
					<g>
						<path class="st49" d="M-1571.9,767.7c0,1-1.2,1.8-2.6,1.8h-7.2c-1.4,0-2.6-0.8-2.6-1.8s1.2-1.8,2.6-1.8h7.2        C-1573.2,765.9-1571.9,766.7-1571.9,767.7z"/>
					</g>
					<g>
						<path class="st49" d="M-1571.9,781.5c0,1-1.2,1.8-2.6,1.8h-7.2c-1.4,0-2.6-0.8-2.6-1.8s1.2-1.8,2.6-1.8h7.2        C-1573.2,779.7-1571.9,780.5-1571.9,781.5z"/>
					</g>
					<g>
						<path class="st49" d="M-1571.9,795.3c0,1-1.2,1.8-2.6,1.8h-7.2c-1.4,0-2.6-0.8-2.6-1.8s1.2-1.8,2.6-1.8h7.2        C-1573.2,793.5-1571.9,794.3-1571.9,795.3z"/>
					</g>
					<g>
						<path class="st49" d="M-1571.9,809.1c0,1-1.2,1.8-2.6,1.8h-7.2c-1.4,0-2.6-0.8-2.6-1.8s1.2-1.8,2.6-1.8h7.2        C-1573.2,807.3-1571.9,808.1-1571.9,809.1z"/>
					</g>
					<g>
						<path class="st49" d="M-1571.9,822.9c0,1-1.2,1.8-2.6,1.8h-7.2c-1.4,0-2.6-0.8-2.6-1.8s1.2-1.8,2.6-1.8h7.2        C-1573.2,821.1-1571.9,821.9-1571.9,822.9z"/>
					</g>
					<g>
						<path class="st49" d="M-1571.9,836.7c0,1-1.2,1.8-2.6,1.8h-7.2c-1.4,0-2.6-0.8-2.6-1.8s1.2-1.8,2.6-1.8h7.2        C-1573.2,834.9-1571.9,835.7-1571.9,836.7z"/>
					</g>
					<g>
						<path class="st49" d="M-1571.9,850.5c0,1-1.2,1.8-2.6,1.8h-7.2c-1.4,0-2.6-0.8-2.6-1.8s1.2-1.8,2.6-1.8h7.2        C-1573.2,848.7-1571.9,849.5-1571.9,850.5z"/>
					</g>
					<g>
						<path class="st49" d="M-1571.9,864.3c0,1-1.2,1.8-2.6,1.8h-7.2c-1.4,0-2.6-0.8-2.6-1.8s1.2-1.8,2.6-1.8h7.2        C-1573.2,862.5-1571.9,863.3-1571.9,864.3z"/>
					</g>
				</g>
			</g>
			<polygon class="st42" points="-1472.4,760.6 -1479.7,752.1 -1486.9,760.6 -1486.9,731.7 -1472.4,731.7    "/>
		</g>
	</g>
</g>
<g>
	<path class="st7" d="M551,305.3l-9.7,57.3c0,0-10.4,0.2-24.7-2.1c-0.5-0.1-1.1-0.1-1.6-0.2c-0.7-0.1-1.5-0.2-2.1-0.4   c1.6-9.2,3.1-18.3,4.6-27.6c1.4-8.6,2.5-17.3,3.6-25.9c0.7,0,1.5,0,2.2-0.1c0.9,0,1.7,0,2.6-0.1C539.9,305.7,551,305.3,551,305.3z"/>
	<g>
		<path class="st7" d="M430.9,262.6c-1.4,0.3-41.4,60.3-52.1,76c-10.5,15.6-14,21.2-14,21.2l-61.2-39.9c0,0,23.8-35.7,38.6-58.1    c0.4-0.7,1-1.5,1.4-2.1c2-3.1,3.9-5.9,5.5-8.3c12.4-18.9,28.6-33.9,28.6-33.9S432,262.3,430.9,262.6z"/>
		
			<ellipse transform="matrix(0.7071 -0.7071 0.7071 0.7071 -57.7873 355.6693)" class="st7" cx="400.4" cy="247.6" rx="38.4" ry="38.4"/>
		<path class="st7" d="M562.7,278.4l-11.1,74.7H385.3l-4.1-97.4l13.1-46c3.9-0.5,9.1-1,16-1.2c0.7,2.7,1.9,6.1,3.5,9.6    c5.6,11.7,14.8,19.1,26.8,21.2c4.9,0.9,9.5,1.2,13.8,1.2c17.6,0,30.2-6.6,38.2-12.8c7.1-5.5,11.6-11.6,14-15.2    c13.7,2.2,23,5.2,28.8,7.6c6.1,2.5,8.5,4.5,8.5,4.5L562.7,278.4z"/>
		<path class="st7" d="M567.6,259.9c0,21.2-17.2,38.4-38.4,38.4s-38.4-17.2-38.4-38.4s13-41.5,34.2-41.5    C546.1,218.4,567.6,238.7,567.6,259.9z"/>
		<g>
			<g>
				<rect id="SVGID_148_" x="405.1" y="300.5" class="st7" width="134.6" height="62.1"/>
			</g>
		</g>
		<path class="st7" d="M579.1,313.4c-0.4-5.9-5.9-33.7-6.9-39.9c-2.5-15.2-7.6-27.3-7.6-27.3L503,269.4c0,0,3.2,16.5,6.6,33.2    c-4.2,6.1-6.6,13.6-6.6,21.6c0,21.2,17.2,38.4,38.4,38.4c12.1,0,23.3-0.5,33.3-15.1C582.5,335.9,579.9,324.4,579.1,313.4z"/>
		<path class="st50" d="M483.5,313.4c0,4.2-2.4,7.6-6.9,7.9c-1.4,0.1-2.6-0.1-3.9-0.4c-0.1,0-0.2,0.1-0.5,0.1    c-2.7,1.1-5.5,2.2-8.2,3.2c-1.4,0.5-2.7,1.1-4.1,1.6c-1.2,0.5-2.7,0.9-4.1,0.6c-2.2-0.5-3.6-2.9-3.6-5c0-1.5,0.6-2.9,1.5-4.1    c-2.5,2-5.2,4.5-8.4,4.1c-1.4-0.1-2.7-0.6-3.7-1.7c-1.1-1.1-1.6-3-1.6-4.7c0-1.1,0.2-2.1,0.6-3c-1.9,0.9-3.9,1.1-5.6-0.5    c-1.1-1.1-1.7-2.9-1.9-4.7c-0.1-2,0.5-3.9,1.4-5.5c1.6-3.2,4-5.9,6.5-8c11.6-9.9,24.1-9.2,32.3,4.6    C475.5,301.3,483.5,309.9,483.5,313.4z"/>
		<path class="st50" d="M521.1,306.3c-1.1,8.6-2.2,17.3-3.6,25.9c-1.4,9.2-2.9,18.5-4.6,27.6c-1.9-0.4-3.9-0.7-5.9-1.2    c-0.2,0-0.5-0.1-0.7-0.1c-23.1-5.5-39.3-14.1-39.3-14.1s7-39,7-37.7c0,0.7,18.2,1.9,41,0.1C517,306.7,519,306.5,521.1,306.3z"/>
		<path class="st50" d="M488,335.5c-3,4.4-8.1,6.7-13.2,7.5c-6.1,0.7-12.6,1.1-18.1-1.5c-6-2.9-12.2-8.6-18.3-11.1    c-3-1.2-5-2.6-8.2-2.9c-3.1-0.2-6.6,0.4-9.6-1.1c-2.6-1.4-4.4-4.6-2.5-7.2c0.9-1.2,2-2.9,3.4-3.5c1.5-0.7,3.2-0.9,4.9-1.4    c6-1.5,11.7-1.7,17.7-1c0.4-0.6,0.7-1.1,1.1-1.6c3.4-4.2,8.6-7.2,14-8.1c1.5-0.2,3.1-0.4,4.6-0.4c-1.4-0.4-2.7-1-3.9-1.7    c-2.1-1.4-4-3.2-6-4.9c-1.7-1.5-3.6-2.7-5.9-3.5c-4.2-1.5-9-1.5-13.1,0.2c-2.2,0.9-4.1,2.4-6.5,2.9c-2.2,0.5-4.6,0-6.1-2    c-1.2-1.6-1.6-4-1-6c0.6-2.2,2.2-4,4-5.4c3.6-2.7,8-4.2,12.5-4.6c4.4-0.4,9,0.2,13.1,1.7c4.4,1.5,8.4,3.9,12,6.9    c2.2,1.7,4.2,3.7,6.1,5.9c2.1,2.4,4.1,4.6,6,7.2c0,0.2,0.7,1,0.9,1.2c0.4,0.5,0.7,1,1,1.5c1.7,2.4,3.1,5,4.9,7.4    c2.5,3.4,5.5,6.7,7.1,10.7c1.4,3.4,2,7.4,1,11C489.5,332.9,488.7,334.3,488,335.5z"/>
		<path class="st2" d="M451.5,137.9c-0.1,2.4-0.7,4.6-1.6,6.9c-1.9,4.2-5.2,7.6-9,10.2c-3.9,2.7-8.1,5.1-12.7,6.4    c-4.5,1.2-9.6,1.1-13.7-1.1c-3.5-2-6.2-5.6-6.5-9.7c-0.1-2,0.4-4,1.5-5.7c0.5-0.9,1.1-1.6,1.9-2.2c0.7-0.6,1.6-1.1,2.5-1.5    c0.7-0.4,1.5-0.9,1.5-1.7c0.1-1.1-0.4-2.2-0.4-3.4c0-2.1,0.6-4.4,1.9-6.1c1.4-1.9,3.2-3.1,5.4-3.7c1-0.2,2.1-0.5,3.2-0.4    s2.2,0.4,3.4,0c1.4-0.4,2.5-1.9,3.6-2.9c1.5-1.2,3.1-2.1,5.1-1.6c1.1,0.2,2.1,0.9,3.1,1.5c1.1,0.6,2.1,1.1,3.2,1.6    c2.2,1,4.5,1.9,6.9,2.5c1.2,0.4,0.7,2.2-0.5,2c-0.4-0.1-0.7-0.2-1.1-0.4c0.4,0.9,0.7,1.6,1.1,2.5    C451.1,133.2,451.6,135.6,451.5,137.9z"/>
		<path class="st2" d="M490.1,163.9c0,18.2-14.7,32.9-32.9,32.9s-32.9-14.7-32.9-32.9s2.9-40.3,21.1-38.7    C475.5,127.8,490.1,145.7,490.1,163.9z"/>
		<path class="st50" d="M478,216.4l-37,10.7l-15.3-31.6l33.9-20.5l3.9,8.6l-4,2.2c-0.2-0.1-0.4-0.1-0.6,0c-0.5,0.1-1,0.7-0.7,1.2    c1.9,4.5,4.1,8.9,6.9,13.1c0.2,0.4,0.7,0.6,1.2,0.5c1.4-0.5,2.9-0.9,4.2-1.4l1,2.1L478,216.4z"/>
		<path class="st2" d="M470.5,199.4c-1.4,0.5-2.9,0.9-4.2,1.4c-0.5,0.1-1-0.1-1.2-0.5c-2.6-4.1-4.9-8.5-6.9-13.1    c-0.2-0.5,0.2-1.1,0.7-1.2c0.2,0,0.5,0,0.6,0l4-2.2l0.5,1.1L470.5,199.4z"/>
		<path class="st50" d="M457.9,178.2c0,13.3-10.9,24.2-24.2,24.2s-24.2-10.9-24.2-24.2c0-2.2,0.2-4.4,0.9-6.4    c2.7-10.2,12.2-17.8,23.3-17.8C447,154,457.9,164.9,457.9,178.2z"/>
		<path class="st50" d="M433.6,134.2c0,0-11.8,5.2-16.6,18.8c-2.2,6.5-6.4,17.3-6.4,17.3l46.2,13.7c0,0,17.5-19.8,17.7-21.2    c0.1-0.6-4.6-14.7-21.5-22.2C436.1,133.3,433.6,134.2,433.6,134.2z"/>
		<ellipse class="st50" cx="460.7" cy="184.1" rx="9.4" ry="9.4"/>
		<path class="st50" d="M496.1,210.9c-2.2,2.9-5.4,6.2-9.6,9.5c-12.2,9.5-27.1,12.7-44.3,9.5c-8.9-1.6-15.6-7-20-15.8    c-1-2.1-1.9-4.2-2.4-6.1c15.3-0.4,35.9,0,61.7,1.6C487,210,491.7,210.4,496.1,210.9z"/>
		<path class="st51" d="M437.5,160.9c-0.9-0.5-1.9-0.2-2.5,0.5c-0.2,0.2-0.4,0.5-0.5,0.7s-0.1,0.5-0.1,0.7s0,0.5,0,0.7    c0,0.4,0,0.7,0.1,1.1c0.1,0.2,0.2,0.5,0.5,0.6c0.2,0.1,0.6,0.2,0.9,0.1c0.6-0.2,1.4-0.5,1.9-1s0.9-1.2,0.9-2    C438.5,162,438.1,161.3,437.5,160.9z"/>
		<path class="st51" d="M423,159c0-0.1,0-0.2-0.1-0.4c0-0.1-0.1-0.4-0.2-0.5c-0.2-0.4-0.5-0.6-1-0.7c-0.4-0.1-0.7-0.1-1.1,0.1    c-0.4,0.1-0.6,0.4-0.9,0.7c-0.1,0.2-0.2,0.5-0.2,0.7s-0.1,0.5-0.1,0.6c-0.1,0.4-0.1,0.7,0,1.1c0.1,0.2,0.2,0.5,0.5,0.6    c0.2,0.1,0.6,0.2,0.9,0.1c0.5-0.2,1-0.4,1.5-0.9c0.2-0.2,0.5-0.5,0.6-0.9C422.9,159.4,423,159.1,423,159    C423,159.3,423,159.1,423,159z"/>
		<path class="st2" d="M447.9,158.1c-1.1-2.5-2.6-5.1-5-6.5c-1.7-1-7.9-1.7-6.6,1.7c0.5,1.6,3.4,1.7,4.6,2.4c2,0.9,3.7,2.1,5.2,3.7    c0.4,0.4,1,0.4,1.5,0.1C448,159.1,448.1,158.6,447.9,158.1z"/>
		<path class="st52" d="M426.1,151.9c-0.4-1.4-2.5-0.7-2.1,0.6c0.7,2.6,0.1,5.6-1.6,7.6c-1,1.2-2.5,1.9-3.5,2.9    c-1.1,1.1-1.9,3.1-0.7,4.6c0.4,0.5,1,0.7,1.5,0.4c0.5-0.2,0.7-1,0.4-1.5c-0.9-1.1,0.9-2.2,1.7-2.9c1.2-0.9,2.4-1.9,3.2-3.2    C426.5,158,427,154.8,426.1,151.9z"/>
		<path class="st2" d="M424.5,148.2c-1-0.9-2.2-1.5-3.5-1.6c-1.5-0.2-3.1,0-4.5,0.7c-0.5,0.2-0.7,1-0.4,1.5c0.2,0.5,0.9,0.6,1.4,0.5    c1.4,0.4,2.6,0.9,3.9,1.6c0.6,0.4,1.1,0.9,1.7,1.4c0.9,0.6,2,0.5,2.6-0.4C426.5,150.5,425.5,149,424.5,148.2z"/>
		<path class="st52" d="M426.9,175.9c-0.1-0.5-0.7-1-1.4-0.7c-2.6,1.1-5.5,1.2-8.2,0.5c-1.4-0.4-2,1.7-0.6,2.1    c3.1,0.9,6.4,0.7,9.4-0.5C426.5,177,427,176.5,426.9,175.9z"/>
		<path class="st52" d="M465,181.5c-3,0.7-6,1.6-9,2.4c-1,0.2-1,1.5-0.2,2c2.5,1.6,4.9,3.2,7.4,4.9c0.5,0.4,1.2,0.1,1.5-0.4    c0.4-0.5,0.1-1.2-0.4-1.5c-1.7-1.1-3.5-2.2-5.2-3.4c2.2-0.6,4.4-1.1,6.6-1.7C467,183.2,466.4,181.1,465,181.5z"/>
		<path class="st2" d="M477.6,161.5c-0.4,1.5-1.1,2.9-2,4.1c-1.6,2.5-4.6,4.1-6.7,6.2c-4,4.2-7.9,7.4-13.1,10.1    c-0.6,0.4-1,0.9-1.2,0.2c-0.7-2.1-1.6-4.4-1.4-6.6c0.1-1.7,0.7-3.4,1.9-4.6c0.6-0.6,1.2-1,2-1.4c0.5-0.2,1.4-0.5,1.6-1.1    c0.1-0.4,0.1-0.9,0.1-1.2c0-0.5,0-0.9,0.1-1.4c0.1-0.7,0.4-1.6,0.7-2.2c0.4-0.6,0.7-1.1,1.1-1.5c-1.2-0.4-2.4-1.1-3.2-2.2    c-0.7-1-1.1-2-1.2-3.1c-0.5,0-1,0-1.5,0c-3.5-0.2-6.7-2.4-8.2-5.5c-0.7-1.6-1-3.5-0.7-5.2c-0.7,0-1.5-0.1-2.2-0.2    c-3.7-0.6-7.2-3.1-8-7c-0.4-1.7-0.1-3.6,0.9-5.2c0.1-0.2,0.4-0.5,0.5-0.6c0-0.2,0.2-0.5,0.5-0.6c0.2-0.1,0.5-0.4,0.9-0.5    c0.6-0.4,1.2-0.6,2-0.9c2.5-0.7,5.1-0.6,7.6-0.2c2.7,0.5,5.4,1.5,8,2.6c4.9,2.2,9.2,5.5,13,9.4c1.9,2,3.5,4.1,5,6.4    c1.5,2.4,3,5,3.7,7.7C478,158.3,478,159.9,477.6,161.5z"/>
		<path class="st2" d="M488.1,143.7c-0.7-0.4-1.5-0.5-2.2-0.5c0.2-1,0.4-2,0.1-3c-0.1-0.7-1.2-1-1.7-0.5c-1.1,1.4-1.7,3.1-1.6,4.9    c0,0,0,0,0,0.1c-0.5,0-1,0.5-1,1s0.5,1,1,1c1.9-0.1,3.7-0.5,5.5-1.2C489,145.2,488.7,144.1,488.1,143.7z"/>
		<path class="st5" d="M476.4,320.3c-3.9,0.4-7.9,1.2-11.6,2.5c-1.9,0.6-3.6,1.5-5.4,2.1c-1.5,0.5-3.2,1.1-4.7,0.5    c-1.1-0.5-1.7-1.7-1.9-3c-0.1-1.5,0.5-2.9,1.4-4.1c2-2.6,5.2-4.6,8.2-6c3.6-1.6,7.5-2.4,11.4-2.2c1.4,0,1.4-2.2,0-2.2    c-3.9-0.1-7.7,0.6-11.4,2.1c-3.5,1.5-7,3.6-9.5,6.5c-1.2,1.4-2.2,3.1-2.4,5c-0.2,1.6,0.2,3.5,1.4,4.7c1.2,1.5,3.1,2,5,1.9    c2-0.2,3.7-1.1,5.6-1.9c4.4-1.9,9.1-3,13.8-3.5c0.6-0.1,1.1-0.5,1.1-1.1C477.5,320.9,477,320.3,476.4,320.3z"/>
		<path class="st5" d="M471,298.6c-7.6-0.5-15.2,1.4-21.7,5.1c-1.6,1-3.1,2-4.6,3.2s-2.9,2.5-4,4.1c-2.1,3-2.5,7.6,0.6,10.1    c1.6,1.2,3.6,1.6,5.6,1.4c2.4-0.2,3.5-0.9,5.6-2c1.2-0.7,1.1-3.1-0.1-2.5c-2.6,1.5-6.1,3.4-9.2,1.7c-1.2-0.7-2-2-2-3.4    c0-1.6,0.6-3.1,1.5-4.4c1-1.4,2.2-2.5,3.6-3.5c1.2-1,2.6-2,4.1-2.9c2.9-1.7,6-3,9.2-3.9c3.7-1,7.5-1.2,11.4-1    c0.6,0,1.1-0.5,1.1-1.1C472,299.1,471.5,298.6,471,298.6z"/>
		<path class="st5" d="M481.6,306.7c-4.6-5.6-9.2-11.4-13.8-17c-0.1-0.1-0.1-0.1-0.2-0.1c-2.1-2.4-5.6-3.2-8.6-3.4    c-4-0.1-8,1-11.6,2.7c-3.5,1.7-6.7,4.2-9.2,7.2c-1.2,1.6-2.4,3.2-3.2,5.1c-1,2-1.9,4.2-2,6.5c-0.2,2.5,0.7,5.2,3,6.5    c2,1,4.9,0.5,5.9-1.7c0.2-0.5,0.6-1.2,0-1.5c-0.5-0.2-0.9,0-1.1,0.5c-0.6,1.2-3.1,1.4-4.1,0.5c-1.4-1.1-1.6-3.1-1.4-4.7    c0.6-3.5,2.5-6.9,4.7-9.6c4.4-5.2,10.9-8.9,17.8-9.2c3.4-0.1,7.6,0.5,9.2,3.9c0.1,0.2,0.4,0.5,0.7,0.5l12.6,15.3    c0.4,0.5,1.1,0.4,1.6,0C482.1,307.8,482,307.2,481.6,306.7z"/>
		<path class="st5" d="M461.6,299.1c-2.5-0.6-5.4,0.2-7.1,2.1c-0.4,0.4-0.5,1.1,0,1.6c0.4,0.4,1.1,0.5,1.6,0    c0.1-0.2,0.4-0.4,0.6-0.5c0,0,0,0,0.1,0c0,0,0,0,0.1,0c0.1-0.1,0.2-0.1,0.4-0.2c0.2-0.1,0.5-0.2,0.7-0.4c0,0,0,0,0.1,0    c0.2-0.1,0.4-0.1,0.5-0.1c0.2-0.1,0.5-0.1,0.7-0.1c0.1,0,0.1,0,0.2,0s0.2,0,0.4,0c0.2,0,0.5,0,0.7,0h0.1c0.1,0,0.2,0,0.4,0.1    c0.6,0.1,1.2-0.1,1.4-0.7C462.6,299.8,462.2,299.2,461.6,299.1z"/>
		<path class="st5" d="M465.4,287.7c-3.4-4.1-7.9-7.2-12.8-9.1c-5.2-2-11-2.4-16.3-1.4c-2.7,0.5-5.5,1.4-8.1,2.6    c-2.4,1.1-4.7,2.6-6.4,4.7c-1.6,2-2.4,4.4-1.9,6.9s2.4,4.4,4.9,4.7c1.5,0.2,3.1,0,4.6-0.4c1.7-0.4,3.4-0.9,5.1-1.2    c3.6-0.9,7.1-1.9,10.7-2.7c1.4-0.4,3.9-2.7,2.4-2.6c-3.9,0.6-8.9,2-11.8,2.7c-1.5,0.4-3,0.7-4.5,1.1c-1.2,0.4-2.5,0.7-3.9,0.9    c-2,0.4-4.2-0.1-5.1-2.1c-0.7-1.9-0.2-3.9,0.7-5.4c1.4-2,3.5-3.2,5.5-4.4c2.2-1.2,4.7-2.1,7.2-2.6c5-1.1,10.1-0.7,15,0.7    c5.1,1.7,9.6,4.9,13.1,9c0.4,0.5,1.1,0.4,1.6,0C465.7,288.9,465.7,288.2,465.4,287.7z"/>
		<path class="st5" d="M478.4,342.9c-0.4,0.2-0.6,0.4-1,0.6c-5.7,3-12.7,2.2-18.6-0.1c-6.1-2.5-11.4-6.6-17.1-9.9    c-2.7-1.6-5.6-3-8.7-3.7c-1.5-0.4-3.1-0.7-4.7-0.7c-1.7-0.1-3.4,0-5.1-0.1c-3-0.4-6.1-1.6-7.2-4.6c-1-2.6-0.1-5.6,1.6-7.6    c2-2.2,5-3.2,8-3.6c3.5-0.4,7-0.4,10.5-0.6c1.5,0,1.7,2.4,0.4,2.4c-3.6,0.1-7.6-0.1-11.2,0.5c-2.7,0.5-5.7,1.6-6.9,4.4    c-0.9,2-0.6,4.5,1.4,5.7c2.5,1.6,5.7,1.2,8.6,1.4c6.2,0.4,12,3.2,17.1,6.4c5.1,3.2,10.2,6.9,16,8.9c4,1.4,8.5,1.7,12.6,0.5    c1-0.4,2-0.7,3-1.2c0.5,0.1,1.1,0.1,1.7,0C479,341.5,479,342.4,478.4,342.9z"/>
		<path class="st5" d="M479.6,343c-0.7,0.2-1.5,0.4-2.2,0.4c-1.1,0-2.1-0.4-3.1-0.7c-0.1,0-0.2-0.1-0.2-0.1c-3-1.6-4.6-4.9-5.9-7.9    c-1.1-2.9-2.2-6.4-4.9-8.2c-0.5-0.4-0.7-1-0.4-1.5c0.2-0.5,1-0.7,1.5-0.4c1.5,1.1,2.6,2.6,3.5,4.2c1.6,2.9,2.2,6.2,4.1,9    c1.1,1.7,2.9,3.2,4.9,3.6c0.5,0.1,1.1,0.1,1.7,0c0.1,0,0.4-0.1,0.5-0.1c0.6-0.2,1.2,0.2,1.4,0.7    C480.5,342.3,480.1,342.9,479.6,343z"/>
		<path class="st53" d="M525.9,306.2l-9.2,54.4c-0.5-0.1-1.1-0.1-1.6-0.2c-0.7-0.1-1.5-0.2-2.1-0.4c-1.9-0.4-3.9-0.7-5.9-1.2    c-0.2,0-0.5-0.1-0.7-0.1l8.7-51.6c2-0.1,4.1-0.4,6.1-0.5c0.7,0,1.5,0,2.2-0.1C524,306.2,525,306.2,525.9,306.2z"/>
		<path class="st5" d="M549.7,302.8c-0.1-0.6-0.7-0.9-1.4-0.7c-8.6,1.2-17.3,2.2-26.1,3c-8.7,0.7-17.5,1.2-26.2,1.5    c-5,0.1-9.9,0.1-14.8,0.1c-1.4,0-1.4,2.2,0,2.2c8.9,0,17.6-0.1,26.4-0.6c8.9-0.5,17.6-1.1,26.3-2.1c5-0.5,10-1.2,14.8-1.9    C549.5,304.1,550,303.3,549.7,302.8z"/>
		<path class="st5" d="M517.4,306.3c-1.2-7.7-3-15.3-5.1-23c-0.6-2.1-1.2-4.2-2-6.4c-0.5-1.4-2.6-0.7-2.1,0.6    c2.4,7.5,4.4,15.1,5.9,22.7c0.4,2.1,0.9,4.4,1.1,6.5c0.1,0.6,0.9,0.9,1.4,0.7C517.2,307.6,517.5,307,517.4,306.3z"/>
	</g>
	<g>
		<path class="st5" d="M410.9,350.9l-83.2-4.5c-5.6,0-11.7-4.5-13.7-10.1l-27.1-59.6c-3.5-9.1,5.4-14.6,11-14.6H384    c5.6,0,11.7,4.5,13.7,10.1l22.6,64.1C422.1,341.9,418.6,350.9,410.9,350.9z"/>
		<path class="st2" d="M407.6,354l-83.2-4.5c-5.6,0-11.7-4.5-13.7-10.1l-27.1-59.6c-3.5-9.1,5.4-14.6,11-14.6h86.1    c5.6,0,11.7,4.5,13.7,10.1l22.6,64.1C419,345.1,415.5,354,407.6,354z"/>
		<path class="st2" d="M407,354.7h-86.7c-5.7,0-11.8-4.5-13.8-10.2l-22.7-64.6c-2-5.7,1-10.2,6.5-10.2H377c5.7,0,11.8,4.5,13.8,10.2    l22.7,64.6C415.5,350,412.6,354.7,407,354.7z"/>
		<path class="st7" d="M358.5,314.1l-4.7,7.4c-1,1.5-3.5,1.5-5.5,0l-9.9-7.4c-2.1-1.5-3-4-2-5.5l4.7-7.4c1-1.5,3.5-1.5,5.5,0    l9.9,7.4C358.6,310.1,359.5,312.6,358.5,314.1z"/>
		<path class="st2" d="M449.9,362.8H324.4c-4.5,0-8.1-3.6-8.1-8.1s3.6-8.1,8.1-8.1h125.5c4.5,0,8.1,3.6,8.1,8.1    S454.4,362.8,449.9,362.8z"/>
	</g>
	<path class="st53" d="M506.6,212.4c-2.4,3.6-6.9,9.6-14,15.2c-8,6.2-20.6,12.8-38.2,12.8c-4.4,0-9-0.4-13.8-1.2   c-11.8-2.1-21.1-9.5-26.8-21.2c-1.6-3.5-2.7-6.7-3.5-9.6c1.7-0.1,3.6-0.1,5.6-0.2c1.2,0,2.6-0.1,4-0.1c0.6,1.9,1.4,4,2.4,6.1   c4.4,8.9,11.1,14.2,20,15.8c17.1,3.1,32.1,0,44.3-9.5c4.2-3.2,7.4-6.7,9.6-9.5c1.9,0.2,3.6,0.4,5.4,0.6   C503.2,211.9,505,212.2,506.6,212.4z"/>
</g>
<g>
	<g>
		<path class="st1" d="M278,163H167c-7.1,0-12.9-5.8-12.9-12.9v-79c0-7.1,5.8-12.9,12.9-12.9H278c7.1,0,12.9,5.8,12.9,12.9v79.1    C290.9,157.3,285.1,163,278,163z"/>
		<circle class="st5" cx="222.5" cy="110.5" r="25.4"/>
		<g>
			<g>
				<path class="st54" d="M284,154.4H160.5c-0.1,0-0.2,0.1-0.2,0.2c0,0.1,0.1,0.2,0.2,0.2H284c0.1,0,0.2-0.1,0.2-0.2      S284,154.4,284,154.4z"/>
			</g>
		</g>
		<polygon class="st7" points="216,122.3 232.1,110.5 216,98.6   "/>
		<path class="st4" d="M290.7,71.6v1.8h-90.5v-1.8c0-7.4,6.3-13.4,14.3-13.4h61.9C284.5,58.3,290.7,64.3,290.7,71.6z"/>
		<g>
			<path class="st5" d="M260.8,62.7c-1.9,0-3.4,1.4-3.4,3.2s1.5,3.2,3.4,3.2s3.4-1.4,3.4-3.2C264.1,64.2,262.6,62.7,260.8,62.7z"/>
			<path class="st5" d="M270,62.7c-1.9,0-3.4,1.4-3.4,3.2s1.5,3.2,3.4,3.2s3.4-1.4,3.4-3.2C273.3,64.2,272,62.7,270,62.7z"/>
			<path class="st5" d="M279.5,62.7c-1.9,0-3.4,1.4-3.4,3.2s1.5,3.2,3.4,3.2s3.4-1.4,3.4-3.2C282.7,64.2,281.4,62.7,279.5,62.7z"/>
		</g>
	</g>
	<path class="st4" d="M244.5,71.6v1.8H154v-1.8c0-7.4,6.3-13.4,14.3-13.4h61.9C238.3,58.3,244.5,64.3,244.5,71.6z"/>
</g>
<path class="st1" d="M112.8,94.1c0,2.8-2.1,5-4.8,5s-4.8-2.2-4.8-5s2.1-5,4.8-5C110.6,89.2,112.8,91.4,112.8,94.1z"/>
<path class="st1" d="M82.5,126.7c0,1.8-1.3,3.2-3,3.2s-3-1.4-3-3.2c0-1.8,1.3-3.2,3-3.2S82.5,124.9,82.5,126.7z"/>
<ellipse class="st1" cx="587.7" cy="258.4" rx="1.7" ry="1.8"/>
<ellipse class="st1" cx="103.1" cy="159.1" rx="1.7" ry="1.8"/>
<path class="st1" d="M194,309.5c-0.9,2.6-3.6,4-6,3.1c-2.5-0.9-3.8-3.8-2.9-6.3c0.9-2.6,3.6-4,6-3.1  C193.5,304,194.8,306.8,194,309.5z"/>
<path class="st1" d="M203.5,327.1c-0.3,0.9-1.2,1.4-2.1,1.1c-0.9-0.4-1.3-1.3-1-2.2c0.3-0.9,1.2-1.4,2.1-1.1  C203.3,325.2,203.8,326.2,203.5,327.1z"/>
<ellipse class="st1" cx="235.5" cy="320.2" rx="4.8" ry="5"/>
<ellipse class="st1" cx="576.4" cy="229.8" rx="1.7" ry="1.8"/>
<path class="st1" d="M540.6,196.8c0,2.8-2.1,5-4.8,5c-2.7,0-4.8-2.2-4.8-5s2.1-5,4.8-5C538.5,191.7,540.6,193.9,540.6,196.8z"/>
<path class="st5" d="M584,340.8h-52.8V364H584C590.1,364,590.1,340.8,584,340.8z"/>
<path class="st2" d="M651.2,339.6H549.5l18.2,2.5l5.4,5.3l1.8,7.2l-1.5,4.3l-10.5,6.2h88.3c7.1,0,12.8-5.7,12.8-12.8l0,0  C664,345.3,658.4,339.6,651.2,339.6z"/>
<path class="st55" d="M563,339.6h-33.3c-0.8,0-1.5,0.7-1.5,1.5s0.7,1.5,1.5,1.5H563c5.4,0,9.8,4.4,9.8,9.8s-4.4,9.8-9.8,9.8h-33.3  c-0.8,0-1.5,0.7-1.5,1.5s0.7,1.5,1.5,1.5H563c7,0,12.8-5.7,12.8-12.8l0,0l0,0l0,0C575.7,345.3,570,339.6,563,339.6z"/>
<path class="st5" d="M590,298.1h-51.7v21.8H590C596,319.9,596,298.1,590,298.1z"/>
<path class="st4" d="M630,297h-72l17.1,2.4l6.9,5.5l-0.2,6.2l-1.4,4.1l-7.2,5.8H630c6.6,0,12-5.4,12-12l0,0  C642,302.4,636.5,297,630,297z"/>
<path class="st56" d="M583.9,309L583.9,309L583.9,309z"/>
<path class="st1" d="M571.9,297h-35.3c-0.7,0-1.4,0.6-1.4,1.4c0,0.7,0.6,1.4,1.4,1.4h35.2c5.1,0,9.3,4.1,9.3,9.3l0,0l0,0l0,0  c0,5.1-4.1,9.3-9.3,9.3h-35.2c-0.7,0-1.4,0.6-1.4,1.4l0,0c0,0.7,0.6,1.4,1.4,1.4h35.3c6.6,0,12-5.4,12-12  C583.9,302.4,578.5,297,571.9,297z"/>
<path class="st56" d="M581,309L581,309L581,309z"/>
<path class="st5" d="M607,338.8h36.5v-16.9H607C602.6,321.8,602.6,338.8,607,338.8z"/>
<path class="st8" d="M632.1,321h-86.8c-5.1,0-9.3,4.2-9.3,9.3l0,0c0,5.1,4.2,9.3,9.3,9.3h75l-5.6-4.5l-1.1-3.2l-0.2-4.8l3.1-4.3  L632.1,321z"/>
<path class="st9" d="M621.2,323.8h23.2c0.8,0,1.4-0.6,1.4-1.4s-0.6-1.4-1.4-1.4h-23.2c-5.1,0-9.3,4.2-9.3,9.3l0,0l0,0l0,0  c0,5.1,4.2,9.3,9.3,9.3h23.2c0.8,0,1.4-0.6,1.4-1.4s-0.6-1.4-1.4-1.4h-23.2c-3.6,0-6.5-2.9-6.5-6.5  C614.9,326.7,617.7,323.8,621.2,323.8z"/>
<path class="st2" d="M163.8,226.3H128c-2.1,0-3.8-1-3.8-2.2l0,0c0-1.2,1.7-2.2,3.8-2.2h35.8c2.1,0,3.8,1,3.8,2.2l0,0  C167.5,225.3,165.8,226.3,163.8,226.3z"/>
<path class="st2" d="M173.8,237.3h-46.9c-1.5,0-2.8-1-2.8-2.2l0,0c0-1.2,1.3-2.2,2.8-2.2h46.9c1.5,0,2.8,1,2.8,2.2l0,0  C176.6,236.3,175.3,237.3,173.8,237.3z"/>
<path class="st2" d="M173.8,248.5h-46.9c-1.5,0-2.8-1-2.8-2.2l0,0c0-1.2,1.3-2.2,2.8-2.2h46.9c1.5,0,2.8,1,2.8,2.2l0,0  C176.6,247.5,175.3,248.5,173.8,248.5z"/>
<path class="st2" d="M142,279.6h-19.4c-1.1,0-2.1-1-2.1-2.2l0,0c0-1.2,0.9-2.2,2.1-2.2H142c1.1,0,2.1,1,2.1,2.2l0,0  C144.1,278.6,143.3,279.6,142,279.6z"/>
</svg>